<?xml version="1.0" encoding="utf-8"?>
<!-- Generator: Adobe Illustrator 26.1.0, SVG Export Plug-In . SVG Version: 6.00 Build 0)  -->
<svg version="1.1" id="Laag_1" xmlns="http://www.w3.org/2000/svg" xmlns:xlink="http://www.w3.org/1999/xlink" x="0px" y="0px"
	 viewBox="0 0 593.9 183" style="enable-background:new 0 0 593.9 183;" xml:space="preserve">
<style type="text/css">
	.st0{fill-rule:evenodd;clip-rule:evenodd;fill:#F29500;}
	.st1{fill-rule:evenodd;clip-rule:evenodd;fill:#FFFFFF;}
	.st2{fill:#FFFFFF;stroke:#FFFFFF;stroke-miterlimit:10;}
</style>
<path class="st0" d="M184.4,91.5c0,50.5-41,91.5-91.5,91.5S1.4,142,1.4,91.5S42.3,0,92.9,0S184.4,41,184.4,91.5z"/>
<path class="st1" d="M151.6,91.6l2.2-2.2c0.6-0.6,0.6-1.7,0-2.3s-1.7-0.6-2.3,0l-0.2,0.2l-0.7-9.3l2.2-2.2c0.6-0.6,0.6-1.7,0-2.3
	s-1.7-0.6-2.3,0l0,0l-0.2,0.2l-0.8-11c6-5.7,10.8-10.3,11.9-11.3c4.3-4.3,2.9-10.8,2.3-11.5s-7.1-2-11.4,2.3
	c-1.1,1.1-5.6,5.9-11.3,11.9l-11-0.8l0.2-0.2c0.6-0.6,0.6-1.7,0-2.3c-0.6-0.6-1.7-0.6-2.3,0l0,0l-2.2,2.2l-9.3-0.7l0.2-0.2
	c0.6-0.6,0.6-1.7,0-2.3c-0.6-0.6-1.7-0.6-2.3,0l0,0l-2.2,2.2l-14.4-1.1l-3.2,3.2l26.3,7.6l7.5,6.1c-6.7,8.1-17.4,20.3-17.4,20.3
	l-14.3-1.7l-2.2,2.2l10.3,6.3c-0.6,0.6-0.9,1.5-0.7,2.3c-2,2-1.1,3.8-1.1,3.8s1.8,0.9,3.8-1.1c0.8,0.2,1.7-0.1,2.3-0.7l6.3,10.3
	l2.2-2.2l-1.7-14.3c0,0,12.2-10.6,20.3-17.4l6.1,7.6l7.6,26.3l3.2-3.2L151.6,91.6z M72.4,125c-4.9,3.5-10,6.8-15.1,9.8
	c-5.1,3.1-10.3,5.9-15.6,8.4c-2.6,1.2-5.3,2.4-8,3.3c-2.6,1-5.2,1.7-7.9,2.3c-1.2,0.3-2.4,0.4-3.7,0.5c-1,0.1-2,0-3-0.1
	c-0.3-0.1-0.6-0.2-0.9-0.3c-0.1-0.1-0.3-0.2-0.4-0.3c0-0.1,0-0.1,0.1-0.1c0,0,0,0,0,0c0.1,0,0.1-0.1,0.1-0.1c0-0.2,0-0.7,0.1-1.5
	c0-0.3,0.1-0.7,0.1-1c-4.7-6.8-8.3-14.3-10.6-22.2c-0.9,2.3-1.8,4.6-2.6,7.1c-1.1,3.4-1.9,7-2.4,10.5c-0.3,2.1-0.3,4.1-0.2,6.2
	c0.1,1.2,0.3,2.4,0.6,3.5c0.3,1.3,0.8,2.6,1.4,3.8c1.4,2.7,3.6,4.9,6.2,6.3c1.2,0.6,2.5,1.1,3.8,1.4c1.2,0.3,2.3,0.4,3.5,0.4
	c2,0,4.1-0.2,6-0.6c1.8-0.4,3.5-0.9,5.2-1.5c3.1-1.1,6.2-2.5,9.1-4.1c2.9-1.5,5.6-3.2,8.2-4.9c5.2-3.4,10.2-7.1,15.1-11
	c4.8-3.9,9.4-7.9,13.9-12.1c8.9-8.3,17.4-17.1,25.4-26.3C91.8,110.5,82.3,118,72.4,125z"/>
<g>
	<path class="st2" d="M255.1,94.1c2.4,3,3.6,6.5,3.6,10.3c0,3.5-0.9,6.6-2.6,9.3c-1.7,2.7-4.2,4.7-7.5,6.3
		c-3.3,1.5-7.1,2.3-11.6,2.3h-28.3V56.6h27.1c4.4,0,8.3,0.7,11.5,2.2c3.2,1.4,5.7,3.4,7.3,6c1.7,2.6,2.5,5.5,2.5,8.7
		c0,3.8-1,7-3.1,9.6c-2,2.6-4.7,4.4-8.1,5.5C249.7,89.3,252.7,91.1,255.1,94.1z M221.9,83.7h12c3.1,0,5.5-0.7,7.2-2.1
		c1.7-1.4,2.5-3.4,2.5-6.1c0-2.6-0.8-4.7-2.5-6.1c-1.7-1.4-4.1-2.2-7.2-2.2h-12V83.7z M242.6,109.3c1.8-1.5,2.7-3.6,2.7-6.4
		c0-2.8-0.9-5-2.8-6.6c-1.9-1.6-4.4-2.4-7.6-2.4h-13v17.7h13.3C238.4,111.5,240.9,110.8,242.6,109.3z"/>
	<path class="st2" d="M269,82c2.1-4.1,5-7.2,8.6-9.4c3.6-2.2,7.6-3.3,12.1-3.3c3.9,0,7.3,0.8,10.2,2.4c2.9,1.6,5.2,3.5,7,5.9v-7.4
		H320v52.1h-13.3v-7.6c-1.7,2.4-4,4.5-7,6.1c-3,1.6-6.4,2.4-10.3,2.4c-4.4,0-8.4-1.1-12-3.4s-6.5-5.4-8.6-9.5
		c-2.1-4.1-3.1-8.8-3.1-14.1C265.8,90.8,266.9,86.1,269,82z M304.9,88c-1.3-2.3-2.9-4-5.1-5.3c-2.1-1.2-4.4-1.8-6.9-1.8
		c-2.4,0-4.7,0.6-6.8,1.8c-2.1,1.2-3.7,2.9-5,5.2c-1.3,2.3-1.9,5-1.9,8.1c0,3.1,0.6,5.9,1.9,8.2c1.3,2.3,3,4.2,5.1,5.4
		c2.1,1.3,4.3,1.9,6.7,1.9c2.4,0,4.7-0.6,6.9-1.8c2.1-1.2,3.8-3,5.1-5.3c1.3-2.3,1.9-5,1.9-8.2S306.2,90.3,304.9,88z"/>
	<path class="st2" d="M341.4,120.8c-3.4-1.5-6.1-3.6-8-6.3c-2-2.6-3.1-5.5-3.2-8.7h13.3c0.2,2,1.2,3.7,3,5c1.7,1.3,3.9,2,6.4,2
		c2.5,0,4.5-0.5,5.9-1.5c1.4-1,2.1-2.3,2.1-3.9c0-1.7-0.9-3-2.6-3.8s-4.5-1.8-8.2-2.8c-3.9-0.9-7.1-1.9-9.5-2.9
		c-2.5-1-4.6-2.5-6.4-4.6c-1.8-2.1-2.7-4.9-2.7-8.4c0-2.9,0.8-5.5,2.5-7.9c1.7-2.4,4-4.3,7.1-5.6c3.1-1.4,6.8-2.1,11-2.1
		c6.2,0,11.2,1.6,14.9,4.7c3.7,3.1,5.7,7.3,6.1,12.5h-12.6c-0.2-2.1-1-3.7-2.6-4.9c-1.5-1.2-3.6-1.8-6.2-1.8c-2.4,0-4.2,0.4-5.5,1.3
		c-1.3,0.9-1.9,2.1-1.9,3.7c0,1.8,0.9,3.1,2.6,4c1.8,0.9,4.5,1.8,8.2,2.8c3.8,0.9,6.9,1.9,9.3,2.9c2.4,1,4.6,2.6,6.3,4.7
		c1.8,2.1,2.7,4.9,2.8,8.3c0,3-0.8,5.7-2.5,8.1c-1.7,2.4-4,4.2-7.1,5.6c-3.1,1.3-6.7,2-10.9,2C348.6,123.1,344.8,122.3,341.4,120.8z
		"/>
	<path class="st2" d="M432.2,100.2h-38.1c0.3,3.8,1.6,6.7,3.9,8.8c2.3,2.1,5.2,3.2,8.6,3.2c4.9,0,8.4-2.1,10.4-6.3h14.2
		c-1.5,5-4.4,9.1-8.6,12.4c-4.3,3.2-9.5,4.8-15.7,4.8c-5,0-9.5-1.1-13.5-3.3c-4-2.2-7.1-5.4-9.3-9.4c-2.2-4.1-3.3-8.8-3.3-14.1
		c0-5.4,1.1-10.1,3.3-14.2c2.2-4.1,5.3-7.2,9.2-9.4c3.9-2.2,8.5-3.3,13.6-3.3c4.9,0,9.4,1.1,13.3,3.2c3.9,2.1,7,5.2,9.1,9.1
		c2.2,3.9,3.2,8.4,3.2,13.5C432.6,97,432.4,98.7,432.2,100.2z M418.9,91.3c-0.1-3.4-1.3-6.1-3.7-8.1c-2.4-2-5.3-3.1-8.7-3.1
		c-3.3,0-6,1-8.2,3c-2.2,2-3.6,4.7-4.1,8.2H418.9z"/>
	<path class="st2" d="M457.5,81v25.2c0,1.8,0.4,3,1.3,3.8c0.8,0.8,2.3,1.2,4.3,1.2h6.1v11.1h-8.3c-11.1,0-16.6-5.4-16.6-16.2V81H438
		V70.2h6.2V57.3h13.3v12.9h11.7V81H457.5z"/>
	<path class="st2" d="M478.4,82c2.1-4.1,5-7.2,8.6-9.4c3.6-2.2,7.6-3.3,12.1-3.3c3.9,0,7.3,0.8,10.2,2.4c2.9,1.6,5.2,3.5,7,5.9v-7.4
		h13.3v52.1h-13.3v-7.6c-1.7,2.4-4,4.5-7,6.1c-3,1.6-6.4,2.4-10.3,2.4c-4.4,0-8.4-1.1-12-3.4s-6.5-5.4-8.6-9.5
		c-2.1-4.1-3.1-8.8-3.1-14.1C475.2,90.8,476.3,86.1,478.4,82z M514.3,88c-1.3-2.3-2.9-4-5.1-5.3c-2.1-1.2-4.4-1.8-6.9-1.8
		c-2.4,0-4.7,0.6-6.8,1.8c-2.1,1.2-3.7,2.9-5,5.2c-1.3,2.3-1.9,5-1.9,8.1c0,3.1,0.6,5.9,1.9,8.2c1.3,2.3,3,4.2,5.1,5.4
		c2.1,1.3,4.3,1.9,6.7,1.9c2.4,0,4.7-0.6,6.9-1.8c2.1-1.2,3.8-3,5.1-5.3c1.3-2.3,1.9-5,1.9-8.2S515.6,90.3,514.3,88z"/>
	<path class="st2" d="M551.9,119.8c-4-2.2-7.2-5.4-9.4-9.4c-2.3-4.1-3.4-8.8-3.4-14.1c0-5.3,1.2-10,3.5-14.1
		c2.4-4.1,5.6-7.2,9.6-9.4c4.1-2.2,8.6-3.3,13.6-3.3c5,0,9.6,1.1,13.6,3.3c4.1,2.2,7.3,5.4,9.6,9.4c2.3,4.1,3.5,8.8,3.5,14.1
		c0,5.3-1.2,10-3.6,14.1c-2.4,4.1-5.7,7.2-9.8,9.4c-4.1,2.2-8.7,3.3-13.8,3.3C560.5,123.1,556,122,551.9,119.8z M572.2,109.9
		c2.1-1.2,3.8-2.9,5-5.2c1.3-2.3,1.9-5.1,1.9-8.5c0-4.9-1.3-8.8-3.9-11.4c-2.6-2.7-5.8-4-9.5-4s-6.9,1.3-9.4,4
		c-2.5,2.7-3.8,6.5-3.8,11.4c0,5,1.2,8.8,3.7,11.4c2.5,2.7,5.6,4,9.4,4C567.9,111.6,570.1,111,572.2,109.9z"/>
</g>
</svg>
