<?xml version="1.0" encoding="UTF-8"?>
<svg id="Layer_2" data-name="Layer 2" xmlns="http://www.w3.org/2000/svg" viewBox="0 0 132 88">
  <defs>
    <style>
      .cls-1, .cls-2 {
        fill: #fff;
      }

      .cls-2 {
        font-family: Poppins-SemiBold, Poppins;
        font-size: 21.01px;
        font-weight: 600;
      }

      .cls-3 {
        fill: #85878a;
      }
    </style>
  </defs>
  <g id="Layer_1-2" data-name="Layer 1">
    <g>
      <rect class="cls-1" x="22" y="-22" width="88" height="132" rx="14.72" ry="14.72" transform="translate(110 -22) rotate(90)"/>
      <rect class="cls-3" x="5.28" y="5" width="122" height="78" rx="9.72" ry="9.72"/>
      <rect class="cls-1" x="1.68" y="14.95" width="129.21" height="16.05" rx=".04" ry=".04"/>
      <g>
        <path class="cls-1" d="m26.51,41c-1.41,0-2.79.62-3.81,1.7-.01.01-.03,0-.03-.01v-6.28c0-.23-.18-.41-.41-.41h-1.57c-.23,0-.41.18-.41.41v16.83c0,.23.18.41.41.41h1.51c.23,0,.41-.18.41-.41v-1.06s.02-.02.03-.01c1,1.12,2.44,1.78,3.88,1.78,3.46,0,6.16-2.83,6.16-6.44s-2.71-6.51-6.16-6.51Zm0,10.65c-2.08,0-3.84-1.9-3.84-4.14s1.76-4.21,3.84-4.21,3.77,1.89,3.77,4.21-1.69,4.14-3.77,4.14Z"/>
        <path class="cls-1" d="m45.93,41.3h-1.51c-.23,0-.41.18-.41.41v1.04s-.02.02-.03.01c-1-1.11-2.44-1.76-3.88-1.76-3.47,0-6.19,2.85-6.19,6.49s2.72,6.46,6.19,6.46c1.44,0,2.88-.66,3.88-1.78.01-.01.03,0,.03.01v1.06c0,.23.18.41.41.41h1.51c.23,0,.41-.18.41-.41v-11.53c0-.23-.18-.41-.41-.41Zm-5.82,10.35c-2.09,0-3.79-1.86-3.79-4.14s1.7-4.21,3.79-4.21,3.84,1.93,3.84,4.21-1.76,4.14-3.84,4.14Z"/>
        <path class="cls-1" d="m58.45,49.85c0,2.45-2.05,4.1-5.1,4.1s-5.08-1.55-5.5-4.04c-.02-.12.01-.23.09-.32s.18-.14.3-.14h1.63c.19,0,.35.12.4.3.29,1.18,1.5,1.94,3.1,1.94,1.82,0,2.77-.87,2.77-1.73,0-.58,0-1.23-3.05-1.64-2.99-.43-4.84-1.18-4.84-3.57,0-1.81,1.53-3.76,4.89-3.76,2.8,0,4.69,1.38,5.05,3.7.02.11-.01.23-.09.32-.07.09-.18.14-.3.14h-1.64c-.18,0-.34-.11-.39-.29-.28-1.04-1.24-1.63-2.63-1.63s-2.49.64-2.49,1.45c0,.64.43.94,2.83,1.32,2.23.35,5,.79,5,3.84Z"/>
        <path class="cls-1" d="m71.98,48.68c-.07-.09-.18-.14-.3-.14-.02,0-.05,0-.07,0l-1.15.22c-.43.08-.81.37-.97.78-.45,1.16-1.4,1.92-2.74,2.17-.23.04-.47.07-.71.07-1.65,0-3.07-1.01-3.7-2.64h0s0-.02,0-.02c-.37-.76-.34-1.8-.3-2.21v-.03s0-.02,0-.02c0-.05.01-.09.02-.15v-.03s0-.02,0-.02h0c.01-.09.03-.17.04-.25.33-1.53,1.51-2.76,2.94-3.04.2-.04.41-.06.62-.06,1.38,0,2.67.82,3.39,2.13,0,.01,0,.02-.01.03l-3.69.71c-.29.06-.55.23-.71.48-.16.25-.22.55-.15.84.11.5.55.85,1.07.85.07,0,.14,0,.21-.02l5.96-1.14c.1-.02.2-.08.25-.17.06-.09.08-.19.06-.3-.8-3.88-3.74-5.62-6.3-5.62-.37,0-.74.04-1.1.1-1.63.31-3.03,1.27-3.96,2.7-.92,1.43-1.25,3.14-.92,4.84.59,3.09,3.14,5.25,6.21,5.25.4,0,.81-.04,1.22-.12,2.69-.52,4.48-2.3,4.91-4.89.02-.12-.01-.23-.09-.32Zm-10.15-2.03s0-.01,0-.01h0s0,0,0,.01Z"/>
        <path class="cls-1" d="m84.44,48.58v.02c0,2.89-2.3,5.32-5.19,5.35-3.07.02-5.31-2.19-5.31-5.24v-8.77c0-.65.52-1.17,1.17-1.17h.03c.65,0,1.17.52,1.17,1.17v.64c0,.41.33.74.74.74h6.08c.61,0,1.17.44,1.23,1.04.06.68-.48,1.26-1.15,1.26h-6.16c-.41,0-.74.33-.74.74v4.35c0,1.71,1.19,2.91,2.89,2.91s2.86-1.2,2.86-2.91v-.13c0-.65.52-1.17,1.17-1.17h.03c.65,0,1.17.52,1.17,1.17Z"/>
        <path class="cls-1" d="m98.01,41.3h-1.51c-.23,0-.41.18-.41.41v1.04s-.02.02-.03.01c-1-1.11-2.44-1.76-3.88-1.76-3.47,0-6.19,2.85-6.19,6.49s2.72,6.46,6.19,6.46c1.44,0,2.88-.66,3.88-1.78.01-.01.03,0,.03.01v1.06c0,.23.18.41.41.41h1.51c.23,0,.41-.18.41-.41v-11.53c0-.23-.18-.41-.41-.41Zm-5.82,10.35c-2.09,0-3.79-1.86-3.79-4.14s1.7-4.21,3.79-4.21,3.84,1.93,3.84,4.21-1.76,4.14-3.84,4.14Z"/>
        <path class="cls-1" d="m106.08,41.02c-1.69,0-3.26.68-4.42,1.91-1.15,1.22-1.79,2.85-1.79,4.6,0,3.6,2.73,6.42,6.21,6.42s6.21-2.82,6.21-6.42-2.73-6.51-6.21-6.51Zm0,10.69c-2.09,0-3.79-1.88-3.79-4.18s1.7-4.28,3.79-4.28,3.81,1.92,3.81,4.28-1.71,4.18-3.81,4.18Z"/>
      </g>
      <text class="cls-2" transform="translate(33.77 72.54)"><tspan x="0" y="0">wallet</tspan></text>
    </g>
  </g>
</svg>