<?xml version="1.0" encoding="utf-8"?>
<!-- Generator: Adobe Illustrator 26.1.0, SVG Export Plug-In . SVG Version: 6.00 Build 0)  -->
<svg version="1.1" id="Layer_1" xmlns="http://www.w3.org/2000/svg" xmlns:xlink="http://www.w3.org/1999/xlink" x="0px" y="0px"
	 viewBox="0 0 640 647.5" style="enable-background:new 0 0 640 647.5;" xml:space="preserve">
<style type="text/css">
	.st0{fill:#B3BCBC;}
	.st1{fill:#1A2E35;}
	.st2{fill:#1A1D1E;}
	.st3{fill:#375A64;}
	.st4{fill:#FFFFFF;}
	.st5{fill:#FED38D;}
	.st6{fill:#E1E1E1;}
	.st7{fill:#F29500;}
	.st8{opacity:0.1;enable-background:new    ;}
	.st9{opacity:0.2;fill:#FFFFFF;enable-background:new    ;}
	.st10{fill:#FFC19D;}
	.st11{fill:#FF9C6A;}
	.st12{opacity:0.3;}
	.st13{fill:#F5F5F5;}
	.st14{opacity:0.2;}
	.st15{opacity:0.7;fill:#FFFFFF;enable-background:new    ;}
	.st16{enable-background:new    ;}
	.st17{opacity:0.5;fill:#FFFFFF;enable-background:new    ;}
	.st18{fill:#CC7A63;}
	.st19{fill:#007CFF;}
	.st20{opacity:0.6;fill:#FFFFFF;enable-background:new    ;}
	.st21{opacity:0.2;enable-background:new    ;}
	.st22{fill:#B84D3C;}
</style>
<g>
	<g>
		<g>
			<g>
				<path class="st0" d="M143.7,401c-7.7,0.7-15.2,3.2-21.8,7.3c-3.1,1.9-6.1,4.4-7.1,7.9c-0.2,0.8-0.3,1.7,0.3,2.2
					c0.4,0.4,1,0.4,1.6,0.4C127.8,419,138.9,411.4,143.7,401"/>
			</g>
		</g>
		<g>
			<g>
				<path class="st0" d="M142.9,400.9c-6.2-0.1-12.5-0.2-18.6-1.5c-6.1-1.2-12.1-3.7-16.8-8c-1.4-1.3-2.8-3-2.7-4.9
					C119,386.7,132.8,390.6,142.9,400.9"/>
			</g>
		</g>
		<g>
			<g>
				<path class="st0" d="M143.6,401c-4.3-4.5-8.4-9.5-10.8-15.4c-2.5-5.8-3.3-12.6-1.3-18.6c4.2,2.5,6.7,7.4,8.4,12.1
					c2.7,7.3,4.2,15.1,4.5,23"/>
			</g>
		</g>
		<g>
			<g>
				<path class="st0" d="M164.1,410.5c-4.8,4.8-7.4,11.3-8.6,18.1c-1.3,6.8-0.5,14,2.3,20.3c5-4.4,6.6-11.6,6.7-18.4
					s-1.1-13.2-0.4-19.9"/>
			</g>
		</g>
		<g>
			<g>
				<path class="st0" d="M167.9,411.6c-12.2-7.6-20.2-21.9-20.4-36.7C158.6,383.7,166.6,397.2,167.9,411.6"/>
			</g>
		</g>
		<g>
			<g>
				<path class="st0" d="M189.7,416.9c-5.1,3.4-9.1,8.4-11.5,14.2c-2.4,5.8-3.1,12.2-2,18.4c0.1,0.8,0.4,1.8,1.2,2
					c0.7,0.2,1.4-0.3,1.9-0.7c4.4-4,6.5-10.1,7.5-16c1-6,1.2-12.1,2.9-17.9"/>
			</g>
		</g>
		<g>
			<g>
				<path class="st0" d="M188.8,416.4c-8.5-6.3-15.1-15.2-18.9-25.2c-1.5-4-2.6-8.6-0.7-12.4c0.2-0.3,0.4-0.7,0.7-0.8
					c0.3-0.1,0.7,0.1,0.9,0.2c2.7,1.5,4.9,3.8,6.6,6.4c1.7,2.6,3,5.4,4.3,8.3c2.4,5.2,5.4,10.5,5.8,16.3c0.1,1.4,0.3,2.8,0.6,4.1
					c0.3,1.4,0.5,1.7,0.7,2.8"/>
			</g>
		</g>
		<g>
			<g>
				<path class="st0" d="M222.8,397.3c-8.7-7.2-14.2-19.9-14.1-31.4c0-0.9,0.1-1.8,0.8-2.3c1.1-0.7,2.3,0.5,3,1.6
					C218.9,374.6,222.4,385.9,222.8,397.3"/>
			</g>
		</g>
		<g>
			<g>
				<path class="st0" d="M227,397.1c12.5-5.3,22.6-17.4,26.4-30.8c-7.1,1.3-13.8,5.3-18.4,11C230.3,383,227.1,389.6,227,397.1"/>
			</g>
		</g>
		<g>
			<g>
				<path class="st0" d="M225,389.4c-1.3-14.5,5.2-29.7,16-39c2.1,5.7,1,12.3-1.6,17.8s-6.6,10.1-10.6,14.7
					C227.3,384.6,225.1,387,225,389.4"/>
			</g>
		</g>
		<g>
			<g>
				<path class="st0" d="M199.6,364c-2.5-6.9-5-13.8-8.8-20s-9-11.7-15.6-14.4c2.5,15.2,11.2,28.5,24.7,35.1"/>
			</g>
		</g>
		<g>
			<g>
				<path class="st0" d="M211.1,340c-2.3-17,3.8-36.9,16-48.5C231.5,308.6,225,329.6,211.1,340"/>
			</g>
		</g>
		<g>
			<g>
				<path class="st0" d="M208.8,345.5c10.6-5.9,23.4-5.9,35.1-9c2.5-0.7,5-1.6,6.9-3.5c1.9-1.9,2.8-4.9,1.8-7.3
					c-0.9-2-3-3.3-5.1-3.6s-4.3,0.1-6.4,0.6c-12.8,3.4-23.3,11.4-31.7,21.9"/>
			</g>
		</g>
		<g>
			<g>
				<path class="st0" d="M208.2,356.7c2.6-1,4.2-0.5,7-0.3c9.5,0.6,19.2-1.1,28-5c0.9-0.4,2-1.1,1.8-2.1c-0.1-0.9-1.1-1.3-1.9-1.5
					c-6-1.6-12.4-0.9-18.4,0.9c-6,1.8-11.6,2.8-16.8,7.6"/>
			</g>
		</g>
		<g>
			<g>
				<path class="st0" d="M171.6,319.6c13.2,1.5,27-3.2,36.8-12.5c0.4-0.4,0.9-0.9,1-1.5c0.1-1.4-1.7-2-3-2
					C192.7,303.4,180.1,308.6,171.6,319.6"/>
			</g>
		</g>
		<g>
			<g>
				<path class="st0" d="M177,311.1c4.5-16,16.8-29.3,32-34.7c-1.2,8.3-5.8,15.8-11.7,21.5C191.4,303.6,184.4,307.8,177,311.1"/>
			</g>
		</g>
		<g>
			<g>
				<path class="st0" d="M160.1,294.1c-7.3-8.2-11.9-15.7-18.9-24.2c-0.6-0.7-1.3-1.4-2.2-1.2c-1.2,0.3-1.1,2.1-0.7,3.2
					c3.4,10.2,11.7,18.6,21.6,21.9"/>
			</g>
		</g>
		<g>
			<g>
				<path class="st0" d="M160.2,295.6c3.1-8.3,4-16.5,3.9-25.4c-0.1-6.2-1.2-12.8-5.4-17.2c-4,3-6.1,8.2-6.4,13.3
					c-0.3,5.1,1,10.2,2.7,15C156.6,286,158.7,290.7,160.2,295.6"/>
			</g>
		</g>
		<g>
			<g>
				<path class="st0" d="M171.2,280.6c9.2-14.8,15.9-31.4,19.6-48.7c-5.4,1.5-9.5,6.3-12.4,11.3c-6.7,11.4-9.6,24.3-7.4,37.4"/>
			</g>
		</g>
		<g>
			<g>
				<path class="st0" d="M167.6,297.4c7-4.3,13.9-8.9,19.5-15c5.5-6,9.6-13.2,13.6-20.4c0.3-0.6,0.7-1.3,0.5-1.9
					c-0.2-0.7-0.9-1.2-1.6-1.3c-0.7-0.1-1.4,0.2-2.1,0.5c-7.8,3.1-14.1,9.4-18.8,16.5C174.2,282.8,170.9,289.4,167.6,297.4"/>
			</g>
		</g>
		<g>
			<g>
				<path class="st0" d="M142.6,342.6c-11.1-5.8-18.6-16.8-21.7-29.3c5.8,2.1,10,7.3,13.2,12.7c3.2,5.4,5.4,11.8,9,16.9"/>
			</g>
		</g>
		<g>
			<g>
				<path class="st0" d="M118.3,347.1c-11.2,8.4-18.7,21.8-20.1,36c6.2-3.4,10.8-9.3,13.9-15.7c3.2-6.4,5.1-13.4,6.9-20.4"/>
			</g>
		</g>
		<g>
			<g>
				<path class="st0" d="M103.5,352.2c-5.7,3.7-11.4,7.1-15.4,12.8c-4,5.7-6,13.1-4.4,19.9c5.5-3.3,9.6-8.6,12.7-14.4
					C99.4,364.7,101.5,358.5,103.5,352.2"/>
			</g>
		</g>
		<g>
			<g>
				<path class="st0" d="M121.2,338.8c-7.2,0.5-14.7,1-21.3,4s-12.5,9.1-13.2,16.6c6.6-0.8,12.4-4.8,17.7-8.9
					c5.3-4.1,11.8-9.2,18.1-11.3"/>
			</g>
		</g>
		<g>
			<g>
				<path class="st0" d="M121.4,339c-14.4-2-28.5-14.7-33.6-28.8C101.8,315.4,113.9,325.8,121.4,339"/>
			</g>
		</g>
		<g>
			<g>
				<path class="st0" d="M126.9,297.4c-1.2-5-2.9-9.8-4.3-14.7s-2.4-10-1.9-15.2c0.4-5.1,2.5-10.2,6.3-13.5
					c5.9,13.5,6,29.7,0.2,43.3"/>
			</g>
		</g>
		<g>
			<g>
				<path class="st0" d="M126.4,305.6c-5.3-1.7-11.9-4.4-17.4-4.4c-5.5,0-11.3,1.9-14.8,6.2C104.4,312.1,116.7,311.4,126.4,305.6"/>
			</g>
		</g>
		<g>
			<g>
				<path class="st0" d="M123.8,300.2c-4.9-3.1-9.9-6.3-14-10.5c-4.1-4.2-7.4-9.6-8-15.6c11,5.4,19.4,13.8,22.4,26"/>
			</g>
		</g>
		<g>
			<g>
				<path class="st0" d="M107.1,270c-3.8-10.8-0.7-23.4,5.6-33c0.8-1.2,1.7-2.4,2.9-3.1s2.9-0.8,4,0.2c1.4,1.3,1.2,3.5,0.8,5.4
					C117.9,250.5,113.4,260.9,107.1,270"/>
			</g>
		</g>
		<g>
			<g>
				<path class="st0" d="M102,262.7c-3.8-6-7.7-12-9.8-18.8s-2.3-14.5,1-20.8c5,5.1,6.7,12.7,7.3,20s0.5,14.7,2.7,21.6"/>
			</g>
		</g>
		<g>
			<g>
				<path class="st0" d="M104.7,266.7c-6.8-4.8-12.9-12.8-20.7-15.5c-5.4-1.9-11.6-1.3-16.8-3.7c1.3,5,5,9.1,9.4,11.8
					c4.3,2.6,9.3,4,14.3,4.9C95.8,265,99.8,265.5,104.7,266.7"/>
			</g>
		</g>
		<g>
			<g>
				<g>
					<path class="st0" d="M242.1,456.3c-0.2,0.1-31.4-42.7-69.9-95.7c-38.4-53-69.4-96-69.3-96.2s31.4,42.7,69.9,95.7
						C211.3,413.1,242.3,456.2,242.1,456.3z"/>
				</g>
			</g>
		</g>
		<g>
			<g>
				<g>
					<path class="st0" d="M185.1,299.5c0,0-0.4,0.7-1.1,1.8c-0.8,1.3-1.9,2.9-3.2,4.8c-2.7,4.1-6.3,9.8-10.1,16.3
						c-3.6,6.5-7.3,12.4-8.3,17.2c-0.5,2.4-0.3,4.4,0,5.7c0.3,1.3,0.7,2,0.6,2c0,0-0.1-0.1-0.3-0.5c-0.2-0.3-0.4-0.8-0.6-1.5
						c-0.4-1.3-0.7-3.4-0.2-5.9c0.5-2.5,1.6-5.3,3.1-8.2c1.5-2.9,3.2-6,5.1-9.3c3.8-6.5,7.5-12.2,10.3-16.2c1.4-2,2.6-3.6,3.4-4.7
						C184.6,300,185.1,299.4,185.1,299.5z"/>
				</g>
			</g>
		</g>
		<g>
			<g>
				<g>
					<path class="st0" d="M175.1,260c0,0,0,0.3-0.1,0.8c-0.1,0.6-0.2,1.4-0.4,2.3c-0.4,2.1-0.9,5-1.6,8.5
						c-1.4,7.3-3.4,17.2-5.5,28.1c-2.1,11-3.6,21-4.4,28.3c-0.4,3.6-0.6,6.6-0.8,8.6c-0.1,1-0.1,1.7-0.2,2.4
						c-0.1,0.5-0.1,0.8-0.1,0.8s0-0.3,0-0.8c0-0.5,0-1.3,0-2.4c0.1-2,0.2-5,0.5-8.7c0.6-7.3,2-17.4,4.2-28.4
						c2.2-11,4.2-20.9,5.7-28.1c0.8-3.5,1.4-6.4,1.8-8.5c0.2-0.9,0.4-1.7,0.5-2.3C175,260.3,175.1,260,175.1,260z"/>
				</g>
			</g>
		</g>
		<g>
			<g>
				<g>
					<path class="st0" d="M165,311.3c-0.2,0-1.2-4.2-2.8-9.3c-1.6-5.1-3.5-9.1-3.3-9.2c0.2-0.1,2.4,3.7,4,8.9c0.8,2.6,1.4,5,1.7,6.7
						C164.9,310.1,165.1,311.2,165,311.3z"/>
				</g>
			</g>
		</g>
		<g>
			<g>
				<g>
					<path class="st0" d="M166,351.1c0,0-0.7-0.1-1.9-0.4c-1.3-0.4-3-0.8-5-1.4c-4.2-1.2-10.1-2.9-16.5-4.6
						c-6.5-1.8-12.3-3.3-16.6-4.4c-2-0.5-3.7-1-5-1.3c-1.2-0.3-1.8-0.5-1.8-0.6c0,0,0.7,0,1.9,0.3c1.2,0.2,2.9,0.6,5.1,1.1
						c4.3,1,10.2,2.4,16.6,4.1c6.5,1.8,12.3,3.5,16.5,4.8c2.1,0.7,3.8,1.2,4.9,1.6C165.4,350.8,166,351.1,166,351.1z"/>
				</g>
			</g>
		</g>
		<g>
			<g>
				<g>
					<path class="st0" d="M150.4,346.8c0,0.2-4-0.8-8-3.9c-2.8-2.1-4.7-4.7-5.5-5.9l0.3-0.2c0.2,0.6,0.4,0.9,0.3,1
						c-0.1,0-0.3-0.2-0.6-0.8l0.3-0.2c0.9,1.1,2.9,3.4,5.6,5.5C146.7,345.3,150.5,346.5,150.4,346.8z"/>
				</g>
			</g>
		</g>
		<g>
			<g>
				<g>
					<path class="st0" d="M130.4,341.4c0,0.1-1.3-0.2-3.3,0.4c-2,0.6-4.4,2.3-6.8,4.5c-2.4,2.2-4.4,4.5-5.7,6.1
						c-1.3,1.7-2.1,2.8-2.2,2.7c-0.1,0,0.5-1.3,1.8-3.1c1.2-1.8,3.2-4.2,5.6-6.4c2.4-2.2,5-4,7.2-4.4
						C129.1,340.7,130.5,341.3,130.4,341.4z"/>
				</g>
			</g>
		</g>
		<g>
			<g>
				<g>
					<path class="st0" d="M125.6,340c0,0.1-1.8,0.5-4.5,1.4c-2.8,0.9-6.5,2.5-10.3,5c-3.8,2.5-6.7,5.3-8.7,7.5
						c-2,2.2-3.1,3.7-3.2,3.7c0,0,0.2-0.4,0.6-1.1c0.4-0.7,1.2-1.7,2.1-2.9c1.9-2.3,4.9-5.3,8.7-7.8c3.8-2.5,7.7-4.1,10.5-4.9
						c1.4-0.4,2.6-0.7,3.4-0.8C125.2,340,125.6,340,125.6,340z"/>
				</g>
			</g>
		</g>
		<g>
			<g>
				<g>
					<path class="st0" d="M136.3,310.3c-0.1,0.2-4.3-3.1-9.4-7.3c-5.1-4.2-9-7.8-8.9-7.9c0.1-0.2,4.3,3.1,9.4,7.3
						C132.4,306.6,136.4,310.2,136.3,310.3z"/>
				</g>
			</g>
		</g>
		<g>
			<g>
				<g>
					<path class="st0" d="M136.4,310.2c-0.1,0.2-2.9-2-6.9-3.4c-4-1.4-7.5-1-7.5-1.2c0-0.1,0.8-0.4,2.3-0.4c1.4,0,3.4,0.2,5.5,0.9
						C133.9,307.5,136.6,310.1,136.4,310.2z"/>
				</g>
			</g>
		</g>
		<g>
			<g>
				<g>
					<path class="st0" d="M225.6,433.4c-0.1,0.1-0.9-0.9-2.7-2.4c-1.8-1.5-4.5-3.4-8.2-5.3c-7.3-3.8-18.1-7.5-30.3-10
						c-6.1-1.3-11.9-2.5-17.2-3.9c-5.2-1.4-9.9-3-13.7-4.7c-3.8-1.7-6.7-3.4-8.6-4.7c-0.9-0.7-1.7-1.2-2.2-1.6
						c-0.5-0.4-0.7-0.6-0.7-0.6c0-0.1,1.1,0.7,3,1.9s4.9,2.8,8.6,4.5c3.8,1.6,8.4,3.2,13.6,4.5c5.2,1.4,11.1,2.5,17.2,3.9
						c12.2,2.6,23.1,6.3,30.4,10.3c3.6,2,6.4,4,8.1,5.5c0.9,0.8,1.5,1.4,1.9,1.9C225.4,433.2,225.6,433.4,225.6,433.4z"/>
				</g>
			</g>
		</g>
		<g>
			<g>
				<g>
					<path class="st0" d="M230.6,369.6c0.1,0-0.3,0.9-1,2.3c-0.6,1.5-1.5,3.7-2.2,6.5c-0.8,2.8-1.4,6.2-1.8,10.1s-0.6,8.1-0.8,12.6
						c-0.2,9-0.7,17.1-0.2,22.9c0.2,2.9,0.5,5.3,0.8,6.9c0.2,1.6,0.4,2.5,0.4,2.5c0,0-0.1-0.2-0.2-0.6c-0.1-0.4-0.3-1-0.4-1.8
						c-0.4-1.6-0.7-4-1-6.9c-0.6-5.9-0.2-14,0-23c0.1-4.5,0.4-8.8,0.9-12.6s1.2-7.3,2-10.1s1.8-5,2.5-6.5c0.4-0.7,0.7-1.3,0.9-1.7
						C230.4,369.8,230.5,369.6,230.6,369.6z"/>
				</g>
			</g>
		</g>
		<g>
			<g>
				<g>
					<path class="st0" d="M240.2,381.6c0.1,0.1-1.2,1.3-3.2,3.4c-2,2-4.9,4.8-7.3,8.4c-2.4,3.6-3.9,7.4-4.7,10.2
						c-0.8,2.8-0.7,4.6-0.9,4.6c0,0-0.1-0.5-0.1-1.3c0-0.8,0.1-2,0.4-3.5c0.6-2.9,2.1-6.8,4.6-10.5c2.6-3.7,5.5-6.5,7.6-8.4
						C238.8,382.6,240.1,381.5,240.2,381.6z"/>
				</g>
			</g>
		</g>
		<g>
			<g>
				<g>
					<path class="st0" d="M224.2,406c-0.3,0-0.5-3.8-1.8-8.3c-1.4-4.4-3.3-7.7-3.1-7.9c0.1,0,0.6,0.7,1.4,2.1
						c0.8,1.3,1.7,3.3,2.4,5.6s0.9,4.5,1.1,6C224.3,405,224.3,406,224.2,406z"/>
				</g>
			</g>
		</g>
		<g>
			<g>
				<g>
					<path class="st0" d="M217,328c0,0-0.1,0.3-0.4,0.8c-0.3,0.6-0.7,1.3-1.1,2.1c-0.5,0.9-1.1,2-1.7,3.4c-0.6,1.3-1.4,2.8-2.1,4.6
						c-0.4,0.9-0.7,1.8-1.1,2.7c-0.4,0.9-0.7,2-1.1,3c-0.8,2-1.4,4.3-2.2,6.7c-1.3,4.8-2.5,10.1-3.2,15.8
						c-0.7,5.7-0.8,11.2-0.7,16.1c0.1,2.5,0.2,4.8,0.5,7c0.1,1.1,0.2,2.2,0.4,3.2s0.3,2,0.5,2.9c0.2,1.9,0.7,3.5,0.9,5
						c0.3,1.5,0.6,2.7,0.9,3.7c0.2,1,0.4,1.7,0.6,2.4c0.1,0.5,0.2,0.8,0.1,0.8c0,0-0.1-0.3-0.3-0.8c-0.2-0.6-0.4-1.4-0.7-2.3
						c-0.3-1-0.7-2.2-1-3.7c-0.3-1.5-0.8-3.1-1.1-5c-0.2-0.9-0.3-1.9-0.5-2.9c-0.2-1-0.3-2.1-0.4-3.2c-0.3-2.2-0.4-4.6-0.6-7.1
						c-0.2-5,0-10.5,0.6-16.2c0.7-5.7,1.9-11.1,3.3-15.9c0.8-2.4,1.4-4.6,2.2-6.7c0.4-1,0.7-2,1.1-3c0.4-0.9,0.8-1.8,1.2-2.7
						c0.7-1.7,1.5-3.2,2.2-4.6c0.7-1.3,1.3-2.5,1.8-3.3c0.5-0.8,0.9-1.5,1.2-2.1C216.8,328.2,216.9,328,217,328z"/>
				</g>
			</g>
		</g>
		<g>
			<g>
				<g>
					<path class="st0" d="M204.1,366.2c-0.1,0-0.5-1.2-0.2-3.3c0.3-2,1.7-4.8,4.1-6.8c2.4-2,5.1-2.9,6.9-3.5
						c1.9-0.5,3.1-0.7,3.1-0.6c0,0.1-1.1,0.5-3,1.1c-1.8,0.7-4.3,1.7-6.6,3.6c-2.3,1.9-3.6,4.4-4,6.3
						C204,364.9,204.2,366.2,204.1,366.2z"/>
				</g>
			</g>
		</g>
		<g>
			<g>
				<g>
					<path class="st0" d="M203.2,373.3c-0.2,0-0.4-3.3-2.4-6.8c-1.9-3.5-4.7-5.3-4.5-5.5c0.1-0.1,0.8,0.2,1.8,1.1
						c1,0.8,2.3,2.2,3.3,4c1,1.8,1.5,3.6,1.7,5C203.4,372.5,203.3,373.3,203.2,373.3z"/>
				</g>
			</g>
		</g>
	</g>
	<g>
		<g>
			<path class="st0" d="M201.4,461.9c12.8,15.7,29.7,28.7,49.2,39.9l32-24.8c-5.1-22.2-12.7-42.3-24-59.5L201.4,461.9z"/>
		</g>
	</g>
	<g>
		<g>
			<g>
				<path class="st0" d="M272.7,448c0.1,0.2-10.3,8.5-23.3,18.6c-13,10.1-23.6,18.1-23.7,18c-0.1-0.2,10.3-8.5,23.3-18.6
					C261.9,455.9,272.5,447.8,272.7,448z"/>
			</g>
		</g>
	</g>
	<g>
		<g>
			<g>
				<path class="st0" d="M276.3,454.5c0.1,0.2-9.6,8-21.8,17.4c-12.2,9.5-22.1,17-22.3,16.8c-0.1-0.2,9.6-8,21.8-17.4
					C266.2,461.8,276.1,454.3,276.3,454.5z"/>
			</g>
		</g>
	</g>
	<g>
		<g>
			<g>
				<path class="st0" d="M222.7,462.1c0.2-0.1,2.8,3.2,5.8,7.4c3.1,4.2,5.4,7.7,5.2,7.9c-0.2,0.1-2.8-3.2-5.8-7.4
					C224.9,465.8,222.6,462.2,222.7,462.1z"/>
			</g>
		</g>
	</g>
	<g>
		<g>
			<g>
				<path class="st0" d="M239.8,448.8c0.2-0.1,2.9,3.3,6,7.7c3.2,4.4,5.6,8,5.4,8.1s-2.9-3.3-6-7.7
					C242.1,452.6,239.7,448.9,239.8,448.8z"/>
			</g>
		</g>
	</g>
	<g>
		<g>
			<g>
				<path class="st0" d="M255.8,436.2c0.2-0.1,2.9,3.4,6.1,7.8s5.7,8.2,5.5,8.3c-0.2,0.1-2.9-3.4-6.1-7.8
					C258.1,440,255.6,436.3,255.8,436.2z"/>
			</g>
		</g>
	</g>
	<g>
		<g>
			<g>
				<path class="st0" d="M265.4,429c0.1,0.2-12.1,9.9-27.3,21.7c-15.2,11.8-27.7,21.3-27.8,21.1c-0.1-0.2,12.1-9.9,27.3-21.7
					C252.8,438.2,265.3,428.8,265.4,429z"/>
			</g>
		</g>
	</g>
</g>
<g>
	<path class="st1" d="M174,106.3c2-0.1,5.9-2.4,5.9-2.4c0,0-2.2-2.2-2.4-2.3c-1.8-1.4-6.1-3-8.2-1.5c-1.5,1.1-1.5,3.2-0.4,4.6
		C170.1,106.1,172.3,106.5,174,106.3z"/>
	<path class="st1" d="M181.3,117.4c1.8-0.7,4.8-3.6,5-3.8c1.6,1.7,3.4,3.4,5.2,5c1.1,0.9,2.2,1.8,3.3,2.6c-0.6-0.3-1.1-0.6-1.1-0.6
		c-2.1-0.9-6.7-1.2-8.3,0.8c-1.2,1.5-0.7,3.5,0.8,4.6c1.5,1,3.7,0.8,5.3,0.2c1.6-0.6,4.2-3.1,4.9-3.7c0.4,0.3,0.9,0.7,1.3,1
		c2.1,1.6,4.2,3.1,6.1,4.7c0.7,0.6,1.4,1.1,2.1,1.7c-0.5-0.3-0.9-0.5-1-0.5c-2.1-0.9-6.7-1.2-8.3,0.8c-1.2,1.5-0.7,3.5,0.8,4.6
		c1.5,1,3.7,0.8,5.3,0.2c1.5-0.6,4-2.8,4.8-3.6c0.7,0.6,1.4,1.2,2,1.8c0.4,0.4,0.9,0.8,1.2,1.3c0.4,0.4,0.8,0.9,1.2,1.3
		c0.7,0.9,1.5,1.8,2.2,2.6c0.5,0.6,0.9,1.2,1.4,1.8c-0.7-0.6-2.1-1.6-2.2-1.7c-1.9-1.2-6.4-2.3-8.3-0.5c-1.4,1.3-1.2,3.4,0.1,4.6
		c1.3,1.2,3.5,1.3,5.2,1c1.8-0.4,5.1-2.7,5.5-3c0.8,1,1.5,1.9,2.1,2.8c1.5,2,2.8,3.8,3.8,5.4l1.5-0.8c-1.1-1.6-2.5-3.5-4.1-5.5
		c-0.8-1-1.6-2-2.5-3.1c0.2-0.2,1.4-1.7,2.3-3.2c1.8,0.7,5.5,0.6,6,0.6c0.1,1.2,0.2,2.4,0.3,3.6c0.2,2.4,0.3,4.5,0.3,6.4l1.6-0.9
		c-0.1-1.7-0.2-3.6-0.4-5.6c-0.1-1.3-0.2-2.6-0.4-4c0.5-0.1,4.3-1.3,5.7-2.5c1.3-1.1,2.6-2.9,2.5-4.8c-0.1-1.8-1.6-3.3-3.4-3
		c-2.5,0.4-4.5,4.7-4.8,7c0,0.1-0.1,1.6-0.1,2.6c-0.1-0.6-0.1-1.1-0.2-1.7c-0.1-1.1-0.3-2.3-0.5-3.5c-0.1-0.6-0.2-1.2-0.3-1.8
		c-0.1-0.6-0.3-1.2-0.4-1.8c-0.4-1.4-0.8-2.8-1.2-4.2c1-0.1,4.4-0.7,5.8-1.6s3-2.5,3.2-4.3c0.2-1.8-1.1-3.5-2.9-3.5
		c-2.5,0-5.1,3.9-5.8,6.2c0,0.1-0.4,1.8-0.5,2.7c-0.3-0.8-0.6-1.7-0.9-2.6c-0.9-2.4-1.9-4.9-2.8-7.4c-0.3-0.8-0.6-1.5-0.9-2.3
		c0.3,0,4.4-0.6,6-1.6c1.4-0.9,3-2.5,3.2-4.3c0.2-1.8-1.1-3.5-2.9-3.5c-2.5,0-5.1,3.9-5.8,6.2c-0.1,0.2-0.5,2.6-0.6,3.2
		c-0.6-1.7-1.2-3.3-1.8-5c-0.8-2.3-1.4-4.6-1.8-6.8c0.2,0,4.4-0.6,6.1-1.6c1.4-0.9,3-2.5,3.2-4.3c0.2-1.8-1.1-3.5-2.9-3.5
		c-2.5,0-5.1,3.9-5.8,6.2c-0.1,0.2-0.5,2.8-0.6,3.2c0-0.1-0.1-0.3-0.1-0.4c-0.4-2.4-0.6-4.8-0.6-7.1c0-1.3,0.1-2.6,0.1-3.8
		c0.8,0,4.5-0.1,6.1-0.9c1.5-0.8,3.3-2.1,3.6-3.9c0.4-1.8-0.7-3.6-2.5-3.8c-2.5-0.3-5.5,3.3-6.4,5.4c-0.1,0.1-0.4,1.4-0.7,2.3
		c0.1-0.6,0.1-1.1,0.1-1.6c0.2-2,0.5-3.8,0.8-5.3c0.2-0.9,0.3-1.7,0.5-2.5c0.8-0.4,3.9-2.3,4.9-3.7c1-1.4,1.9-3.5,1.5-5.2
		c-0.5-1.8-2.2-2.9-3.9-2.2c-2.4,1-3.4,5.6-3.3,7.9c0,0.2,0.6,3.3,0.6,3.3c0,0,0,0,0.1,0c-0.2,0.7-0.4,1.5-0.5,2.4
		c-0.3,1.6-0.6,3.4-0.9,5.3c-0.2,2-0.5,4.1-0.5,6.4c0,2.3,0.1,4.7,0.4,7.2c0,0,0,0.1,0,0.1c-0.3-0.7-1.3-2.6-1.4-2.7
		c-1.3-1.9-4.9-4.8-7.3-4.1c-1.7,0.6-2.4,2.6-1.8,4.2c0.7,1.7,2.7,2.7,4.3,3.2c1.9,0.5,5.9-0.3,6.2-0.3c0.4,2.3,1,4.7,1.7,7.1
		c0.4,1.4,0.9,2.7,1.4,4.1c-0.3-0.6-0.6-1.1-0.6-1.2c-1.3-1.9-4.9-4.8-7.3-4.1c-1.7,0.6-2.4,2.6-1.8,4.2c0.7,1.7,2.7,2.7,4.3,3.2
		c1.7,0.4,5.1-0.1,6.1-0.3c0.2,0.5,0.4,1,0.6,1.6c0.9,2.5,1.8,4.9,2.6,7.4c0.3,0.9,0.6,1.7,0.8,2.6c-0.3-0.5-0.5-0.9-0.6-1
		c-1.3-1.9-4.9-4.8-7.3-4.1c-1.7,0.6-2.4,2.6-1.8,4.2c0.7,1.7,2.7,2.7,4.3,3.2c1.6,0.4,4.8-0.1,5.9-0.3c0.2,0.9,0.5,1.8,0.7,2.7
		c0.1,0.6,0.3,1.2,0.4,1.8c0.1,0.6,0.2,1.2,0.3,1.8c0.1,1.1,0.3,2.3,0.4,3.4c0.1,0.8,0.2,1.5,0.2,2.3c-0.3-0.9-0.9-2.5-0.9-2.7
		c-0.7-1.4-2.3-3.4-4-4.4c-0.1-0.2-0.2-0.4-0.3-0.6c-1.1-1.4-3.1-1.8-4.4-0.6c-1.9,1.8-1.2,6.5-0.3,8.6c0.1,0.1,0.8,1.4,1.3,2.2
		c-0.4-0.4-0.7-0.9-1.1-1.3c-0.7-0.9-1.5-1.7-2.3-2.6c-0.4-0.4-0.8-0.9-1.2-1.3c-0.4-0.4-0.9-0.9-1.3-1.3c-1-1-2.1-1.9-3.3-2.9
		c0.7-0.7,3.3-3.1,4-4.7c0.7-1.6,1.2-3.8,0.4-5.4c-0.8-1.6-2.8-2.3-4.3-1.3c-2.1,1.5-2.2,6.2-1.6,8.4c0,0.1,0.7,1.7,1,2.6
		c-0.7-0.6-1.4-1.1-2.1-1.6c-2.1-1.5-4.2-3-6.3-4.5c-0.6-0.5-1.3-0.9-1.9-1.4c0.3-0.2,3.4-3,4.2-4.8c0.7-1.6,1.2-3.8,0.4-5.4
		c-0.8-1.6-2.8-2.3-4.3-1.3c-2.1,1.5-2.2,6.2-1.6,8.4c0.1,0.2,0.9,2.4,1.2,3c-1.4-1-2.8-2.1-4.1-3.1c-1.9-1.5-3.6-3-5.1-4.7
		c0.1-0.1,3.4-3,4.2-4.8c0.7-1.6,1.2-3.8,0.4-5.4c-0.8-1.6-2.8-2.3-4.3-1.3c-2.1,1.5-2.2,6.2-1.6,8.4c0.1,0.2,1,2.6,1.2,3
		c-0.1-0.1-0.2-0.2-0.3-0.3c-1.7-1.8-3-3.7-4.3-5.6c-0.7-1.1-1.3-2.2-1.9-3.2c0.7-0.5,3.7-2.7,4.6-4.2c0.9-1.5,1.6-3.7,0.9-5.4
		c-0.6-1.7-2.5-2.6-4.1-1.7c-2.2,1.2-2.8,5.9-2.4,8.2c0,0.1,0.4,1.4,0.6,2.3c-0.2-0.5-0.5-1-0.8-1.4c-0.9-1.8-1.6-3.4-2.2-4.9
		c-0.3-0.8-0.6-1.6-0.9-2.3c0.4-0.8,2.1-4.1,2.2-5.9c0.1-1.8-0.2-4-1.6-5.2c-1.3-1.2-3.4-1.1-4.4,0.4c-1.5,2.2,0.1,6.6,1.5,8.5
		c0.1,0.2,2.2,2.5,2.3,2.4c0,0,0,0,0-0.1c0.2,0.7,0.5,1.4,0.8,2.3c0.6,1.5,1.2,3.2,2.1,5c0.9,1.8,1.8,3.7,3,5.6
		c1.2,1.9,2.6,3.9,4.2,5.7c0,0,0,0,0.1,0.1c-0.6-0.4-2.5-1.4-2.6-1.4c-2.1-0.9-6.7-1.2-8.3,0.8c-1.2,1.5-0.7,3.5,0.8,4.6
		C177.6,118.3,179.7,118,181.3,117.4z"/>
	<path class="st1" d="M214.3,85.7c0.1,0-0.6-3.1-0.7-3.3c-0.8-2.2-3.5-6-6-5.9c-1.8,0.1-3,1.8-2.8,3.6c0.2,1.8,1.9,3.4,3.4,4.2
		C209.9,85.3,214.3,85.7,214.3,85.7z"/>
</g>
<g>
	<g>
		<g>
			<path class="st0" d="M488,37.6l-8.9,3.3l-3.8-12.1c-7-22.2-29.5-34.1-50-26.5c-20.5,7.6-31.5,31.9-24.5,54.2l3.8,12.1l-9,3.3
				c-7,2.6-10.7,10.9-8.3,18.4l24.8,78.5c2.4,7.7,10.1,11.7,17.1,9.2l92.4-34.2c7.1-2.6,10.8-10.9,8.4-18.6l-24.8-78.5
				C502.8,39,495.1,35,488,37.6z M417.6,50.2c-3.9-12.2,2.2-25.5,13.4-29.7c11.2-4.2,23.5,2.4,27.4,14.5l3.8,12.1l-40.8,15.1
				L417.6,50.2z M469.5,119.9l6.3,20.1c0.3,0.9-0.2,1.7-1,2l-8.9,3.3c-0.7,0.2-1.5-0.1-1.8-1l-6.3-20.1c-6.9-0.3-13.2-5-15.6-12.6
				c-3.1-9.7,1.7-20.3,10.7-23.6c9-3.3,18.8,1.9,21.8,11.6C477.2,107.1,474.8,115.1,469.5,119.9z"/>
		</g>
	</g>
	<g>
		<path class="st2" d="M478.7,40.7c0.1,0.2-16.5,6.7-37.1,14.4s-37.3,13.8-37.4,13.5c-0.1-0.2,16.5-6.7,37.1-14.4
			C461.9,46.5,478.6,40.5,478.7,40.7z"/>
	</g>
	<g>
		<g>
			<path class="st2" d="M498.3,44c0,0,0.1,0.2,0.2,0.5c0.1,0.4,0.3,0.8,0.5,1.4c0.4,1.3,1.1,3.1,1.9,5.4c1.6,4.8,3.9,11.6,6.6,20
				c2.8,8.5,6.1,18.6,9.7,29.8c1.8,5.6,3.8,11.4,5.7,17.6c0.9,3.1,1.6,6.4,1.3,9.8c-0.2,1.7-0.6,3.4-1.4,5c-0.8,1.5-2,2.9-3.3,4
				c-2.7,2.2-5.8,3.5-8.8,4.6c-3,1.1-6,2.2-8.9,3.3c-5.9,2.2-11.5,4.3-16.9,6.2c-10.8,4-20.4,7.5-28.6,10.5
				c-8.1,2.9-14.7,5.4-19.3,7c-2.2,0.8-4,1.4-5.3,1.9c-0.6,0.2-1,0.3-1.4,0.5c-0.3,0.1-0.5,0.1-0.5,0.1s0.1-0.1,0.5-0.2
				c0.4-0.1,0.8-0.3,1.4-0.6c1.2-0.5,3-1.2,5.2-2c4.6-1.8,11.1-4.2,19.2-7.3c8.1-3.1,17.8-6.7,28.5-10.7c5.4-2,11-4.1,16.9-6.3
				c2.9-1.1,5.9-2.2,8.9-3.3c3-1.1,6-2.4,8.5-4.5c1.2-1,2.3-2.3,3-3.7c0.7-1.4,1.2-3,1.3-4.6c0.3-3.2-0.4-6.4-1.2-9.5
				c-1.9-6.1-3.8-12-5.6-17.6c-3.6-11.2-6.8-21.3-9.6-29.8c-2.7-8.5-4.8-15.3-6.4-20.1c-0.7-2.3-1.3-4.2-1.7-5.5
				c-0.2-0.6-0.3-1.1-0.4-1.4C498.3,44.2,498.3,44,498.3,44z"/>
		</g>
	</g>
	<g>
		<g>
			<path class="st2" d="M449.6,19.3c0,0.1-0.9-0.5-2.6-1.2c-1.7-0.7-4.3-1.5-7.6-1.6c-3.2-0.1-7.2,0.4-11.1,2.2
				c-3.9,1.8-7.8,4.9-10.6,9.2c-2.8,4.2-4.1,9.2-4.1,13.6c0,4.5,0.9,8.5,1.8,11.7c0.9,3.3,1.9,5.9,2.5,7.7c0.6,1.8,1,2.8,0.9,2.8
				s-0.5-0.9-1.2-2.7s-1.7-4.3-2.7-7.6c-1-3.3-2-7.3-2-11.9c0-4.6,1.2-9.7,4.1-14.1c2.9-4.4,6.9-7.6,11-9.4
				c4.1-1.8,8.2-2.3,11.5-2.1c3.4,0.2,6,1.1,7.7,1.9c0.8,0.4,1.5,0.8,1.9,1.1C449.4,19.1,449.6,19.2,449.6,19.3z"/>
		</g>
	</g>
	<g>
		<g>
			<path class="st2" d="M450.4,89.4c0,0,0.3-0.2,0.9-0.4c0.6-0.3,1.5-0.6,2.7-1c1.2-0.4,2.7-0.7,4.5-0.8c1.8-0.1,3.9,0.1,6.1,0.9
				c4.4,1.6,8.5,6.3,10.5,12.5c1,3.1,1,6.8,0.1,10.3c-1,3.5-2.9,6.9-5.7,9.7l0.1-0.5c2.3,6.5,4.8,13.6,7.4,21l0.2,0.4l-0.4,0.1
				c-1.2,0.4-2.6,0.9-4,1.4c-2.9,1-5.8,2-8.6,3l-0.4,0.1l-0.1-0.4c-2.4-7.4-5-14.4-6.9-21.1l0.4,0.3c-3.5-0.2-6.7-1.8-9.3-3.8
				c-2.5-2-4.5-4.5-5.8-7.2c-1.3-2.7-1.9-5.5-1.8-8.1c0.1-2.6,0.6-4.9,1.5-6.9c1.6-4,4-6.5,5.8-7.9
				C449.2,89.8,450.4,89.4,450.4,89.4c0,0.1-1.1,0.5-2.8,1.9c-1.7,1.4-4,3.9-5.5,7.9c-1.5,3.8-2.2,9.3,0.5,14.5
				c1.3,2.5,3.2,4.9,5.7,6.9c2.5,1.9,5.5,3.4,8.8,3.6l0.3,0l0.1,0.3c1.9,6.7,4.5,13.6,6.9,21.1l-0.6-0.3c2.8-1,5.7-2,8.6-3
				c1.4-0.5,2.7-0.9,4-1.4l-0.3,0.6c-2.6-7.4-5.1-14.5-7.4-21.1l-0.1-0.3l0.2-0.2c2.6-2.7,4.5-5.9,5.5-9.3c0.9-3.4,0.9-6.8,0-9.8
				c-1.9-6-5.8-10.6-10-12.2c-2.1-0.8-4.1-1.1-5.9-1c-1.8,0.1-3.3,0.3-4.4,0.6C451.6,88.9,450.4,89.5,450.4,89.4z"/>
		</g>
	</g>
</g>
<g>
	<g>
		<g>
			<path class="st3" d="M421.2,629.6l-177-0.8c-21.3-0.1-38.5-18-38.4-40.1l1.9-459.6c0.1-22.1,17.4-39.9,38.7-39.8l177,0.8
				c21.3,0.1,38.5,18,38.4,40.1l-1.9,459.6C459.8,611.9,442.5,629.7,421.2,629.6z"/>
		</g>
		<g>
			<path class="st4" d="M423.2,106.1l-34.3-0.2c-4.6,0-8.4,4-8.4,9l0,6.4c0,5-3.8,9-8.4,9l-66.9-0.3c-4.6,0-8.3-4.1-8.3-9.1l0-6.4
				c0-5-3.7-9-8.3-9.1l-12.1-0.1l-30-0.1c-14.9-0.1-27.1,12.4-27.1,27.9l-1.8,448.6c-0.1,15.4,12,28,26.9,28.1l176.7,0.8
				c14.9,0.1,27.1-12.4,27.1-27.8l1.8-448.6C450.1,118.7,438.1,106.1,423.2,106.1z"/>
		</g>
		<g>
			<g>
				<g>
					<g>
						<path class="st5" d="M399.4,550.7L268,550.1c-1.4,0-2.5-1.5-2.5-3.4l0.1-35.6c0-1.9,1.1-3.4,2.5-3.4l131.4,0.6
							c1.4,0,2.5,1.5,2.5,3.4l-0.1,35.6C401.9,549.2,400.8,550.7,399.4,550.7z"/>
					</g>
				</g>
			</g>
		</g>
	</g>
	<g>
		<g>
			
				<rect x="267.1" y="219.3" transform="matrix(4.780151e-03 -1 1 4.780151e-03 27.9957 512.3554)" class="st5" width="8.7" height="45.6"/>
		</g>
		<g>
			<g>
				<path class="st6" d="M427.9,291c0,0,0.4,0,1-0.2c0.6-0.2,1.6-1,1.7-2.5c0-2.9,0-7.2,0-12.6c0-2.8,0-5.8,0-9.1c0-0.8,0-1.7,0-2.6
					c0-0.9,0-1.7-0.5-2.4c-0.5-0.7-1.3-1.1-2.1-1.1c-0.9,0-1.8,0-2.8,0c-7.5,0-16.1,0-25.6,0c-38-0.1-90.4-0.4-148.2-0.6
					c-0.8,0-1.5,0.4-1.9,1c-0.5,0.6-0.5,1.4-0.5,2.4c0,1.9,0,3.7,0,5.6c0,3.7,0,7.4-0.1,11c0,1.8,0,3.6,0,5.5c0,0.9-0.1,1.9,0.1,2.6
					c0.2,0.7,0.7,1.4,1.4,1.6c0.4,0.1,0.7,0.2,1.1,0.2l1.3,0l2.6,0c1.7,0,3.4,0,5.1,0c13.6,0.1,26.8,0.1,39.4,0.2
					c25.1,0.2,47.7,0.3,66.6,0.4c18.9,0.1,34.3,0.3,44.9,0.4c5.3,0.1,9.4,0.1,12.2,0.1c1.4,0,2.4,0,3.2,0.1
					C427.5,291,427.9,291,427.9,291s-0.4,0-1.1,0c-0.8,0-1.8,0-3.2,0c-2.8,0-6.9,0-12.2,0c-10.6,0-26,0-44.9-0.1
					c-19-0.1-41.6-0.1-66.6-0.2c-12.5,0-25.7-0.1-39.4-0.2c-1.7,0-3.4,0-5.1,0l-2.6,0l-1.3,0c-0.4,0-1-0.1-1.4-0.3
					c-0.9-0.4-1.7-1.3-1.9-2.3c-0.1-0.5-0.1-1-0.1-1.5l0-1.4c0-1.8,0-3.6,0-5.5c0-3.6,0-7.3,0-11c0-1.9,0-3.7,0-5.6
					c0-0.5,0-0.9,0.1-1.5c0.1-0.5,0.3-1,0.6-1.5c0.6-0.9,1.6-1.4,2.7-1.4c57.9,0.3,110.3,0.6,148.2,0.9c9.5,0.1,18.1,0.1,25.6,0.2
					c0.9,0,1.9,0,2.8,0c1,0,1.9,0.5,2.5,1.4c0.6,0.8,0.6,1.9,0.6,2.7c0,0.9,0,1.7,0,2.6c0,3.3-0.1,6.4-0.1,9.1
					c-0.1,5.5-0.1,9.7-0.1,12.7c-0.1,1.5-1.2,2.3-1.9,2.5C428.2,291.1,427.9,291,427.9,291z"/>
			</g>
		</g>
		<g>
			
				<rect x="298.5" y="233.5" transform="matrix(4.783703e-03 -1 1 4.783703e-03 25.8513 576.4415)" class="st5" width="8.1" height="83.4"/>
		</g>
		<g>
			
				<rect x="266.8" y="298.4" transform="matrix(4.780135e-03 -1 1 4.780135e-03 -51.3528 590.6886)" class="st5" width="8.7" height="45.6"/>
		</g>
		<g>
			<g>
				<path class="st6" d="M426.7,370.1c0,0,0.4,0,1-0.2c0.6-0.2,1.7-0.8,2.2-2.1c0.3-0.6,0.3-1.4,0.3-2.3c0-0.9,0-1.9,0-2.9
					c0-2.1,0-4.5,0-7.3s0-5.8,0-9.1c0-0.8,0-1.7,0-2.5c0-0.9-0.1-1.7-0.5-2.4c-0.4-0.7-1.1-1.3-1.9-1.5c-0.8-0.3-1.7-0.1-2.7-0.2
					c-7.5,0-16.1,0-25.5,0c-37.8-0.1-90.1-0.4-147.7-0.6c-1.6,0-3.1,1.3-3.2,3c-0.1,1.8,0,3.7-0.1,5.5c0,3.7,0,7.4-0.1,11
					c0,1.8,0,3.6,0,5.4c0,0.9-0.1,1.8,0.1,2.6c0.2,0.8,0.7,1.4,1.3,1.9c0.6,0.5,1.4,0.6,2.2,0.6l2.6,0c1.7,0,3.4,0,5.1,0
					c13.6,0.1,26.7,0.1,39.2,0.2c25,0.2,47.5,0.3,66.4,0.4c18.9,0.1,34.2,0.3,44.8,0.4c5.3,0.1,9.4,0.1,12.2,0.1
					c1.4,0,2.4,0,3.2,0.1C426.3,370,426.7,370.1,426.7,370.1s-0.4,0-1.1,0c-0.8,0-1.8,0-3.2,0c-2.8,0-6.9,0-12.2,0
					c-10.6,0-25.9,0-44.8-0.1c-18.9-0.1-41.4-0.1-66.4-0.2c-12.5,0-25.6-0.1-39.2-0.2c-1.7,0-3.4,0-5.1,0l-2.6,0
					c-0.9,0-1.9-0.2-2.7-0.8c-0.8-0.6-1.4-1.4-1.7-2.4c-0.3-1-0.1-1.9-0.1-2.8c0-1.8,0-3.6,0-5.4c0-3.6,0-7.3,0-11
					c0-1.9,0-3.6,0.1-5.6c0.2-2.1,2.1-3.9,4.2-3.8c57.7,0.3,109.9,0.6,147.7,0.9c9.5,0.1,18,0.1,25.5,0.2c0.9,0,1.9-0.1,2.8,0.2
					c0.9,0.3,1.7,1,2.2,1.8c0.5,0.8,0.6,1.8,0.6,2.7c0,0.9,0,1.7,0,2.5c0,3.3-0.1,6.4-0.1,9.1c0,2.7,0,5.2-0.1,7.3c0,1,0,2,0,2.9
					c0,0.9,0,1.7-0.4,2.4c-0.6,1.4-1.7,1.9-2.4,2.1C427.1,370.1,426.7,370.1,426.7,370.1z"/>
			</g>
		</g>
		<g>
			
				<rect x="266.4" y="380.8" transform="matrix(4.760018e-03 -1 1 4.760018e-03 -134.1156 672.3935)" class="st5" width="8.7" height="45.6"/>
		</g>
		<g>
			<g>
				<path class="st6" d="M426.4,452.5c0,0,0.4,0,1-0.2c0.6-0.2,1.7-0.8,2.2-2.1c0.3-0.6,0.3-1.4,0.3-2.3c0-0.9,0-1.9,0-2.9
					c0-2.1,0-4.5,0-7.3s0-5.8,0-9.1c0-0.8,0-1.7,0-2.5c0-0.9-0.1-1.7-0.5-2.4c-0.4-0.7-1.1-1.3-1.9-1.5c-0.8-0.3-1.7-0.1-2.7-0.2
					c-7.5,0-16.1,0-25.5,0c-37.8-0.1-90-0.4-147.7-0.6c-1.6,0-3.1,1.3-3.2,3c-0.1,1.8,0,3.7-0.1,5.5c0,3.7,0,7.4-0.1,11
					c0,1.8,0,3.6,0,5.4c0,0.9-0.1,1.8,0.1,2.6c0.2,0.8,0.7,1.4,1.3,1.9c0.6,0.5,1.4,0.6,2.2,0.6l2.6,0c1.7,0,3.4,0,5.1,0
					c13.6,0.1,26.7,0.1,39.2,0.2c25,0.2,47.5,0.3,66.4,0.4c18.9,0.1,34.2,0.3,44.8,0.4c5.3,0.1,9.4,0.1,12.2,0.1
					c1.4,0,2.4,0,3.2,0.1C426,452.5,426.4,452.5,426.4,452.5s-0.4,0-1.1,0c-0.8,0-1.8,0-3.2,0c-2.8,0-6.9,0-12.2,0
					c-10.6,0-25.9,0-44.8-0.1c-18.9-0.1-41.4-0.1-66.4-0.2c-12.5,0-25.6-0.1-39.2-0.2c-1.7,0-3.4,0-5.1,0l-2.6,0
					c-0.9,0-1.9-0.2-2.7-0.8c-0.8-0.6-1.4-1.4-1.7-2.4c-0.3-1-0.1-1.9-0.1-2.8c0-1.8,0-3.6,0-5.4c0-3.6,0-7.3,0-11
					c0-1.9,0-3.6,0.1-5.6c0.2-2.1,2.1-3.9,4.2-3.8c57.7,0.3,109.9,0.6,147.7,0.9c9.5,0.1,18,0.1,25.5,0.2c0.9,0,1.9-0.1,2.8,0.2
					c0.9,0.3,1.7,1,2.2,1.8c0.5,0.8,0.6,1.8,0.6,2.7c0,0.9,0,1.7,0,2.5c0,3.3,0,6.4-0.1,9.1c0,2.7,0,5.2-0.1,7.3c0,1,0,2,0,2.9
					c0,0.9,0,1.7-0.4,2.4c-0.6,1.4-1.7,1.9-2.4,2.1C426.7,452.6,426.4,452.5,426.4,452.5z"/>
			</g>
		</g>
		<g>
			
				<rect x="298.2" y="312.6" transform="matrix(4.783662e-03 -1 1 4.783662e-03 -53.5072 654.7844)" class="st5" width="8.1" height="83.4"/>
		</g>
		<g>
			<g>
				<g>
					<path class="st5" d="M268.1,437.5c0,2.2-1.6,4-3.7,4c-2,0-3.6-1.8-3.6-4s1.6-4,3.7-4C266.5,433.5,268.1,435.3,268.1,437.5z"/>
				</g>
				<g>
					<path class="st5" d="M279.4,437.6c0,2.2-1.6,4-3.7,4c-2,0-3.6-1.8-3.6-4s1.6-4,3.7-4C277.8,433.5,279.4,435.3,279.4,437.6z"/>
				</g>
				<g>
					<path class="st5" d="M290.7,437.6c0,2.2-1.6,4-3.7,4c-2,0-3.6-1.8-3.6-4s1.6-4,3.7-4C289.1,433.6,290.7,435.4,290.7,437.6z"/>
				</g>
				<g>
					<path class="st5" d="M302,437.7c0,2.2-1.6,4-3.7,4c-2,0-3.6-1.8-3.6-4s1.6-4,3.7-4C300.4,433.6,302,435.5,302,437.7z"/>
				</g>
				<g>
					<path class="st5" d="M313.3,437.7c0,2.2-1.6,4-3.7,4c-2,0-3.6-1.8-3.6-4s1.6-4,3.7-4C311.7,433.7,313.3,435.5,313.3,437.7z"/>
				</g>
				<g>
					<path class="st5" d="M324.6,437.8c0,2.2-1.6,4-3.7,4c-2,0-3.6-1.8-3.6-4s1.6-4,3.7-4C323,433.8,324.6,435.6,324.6,437.8z"/>
				</g>
				<g>
					<path class="st5" d="M335.9,437.8c0,2.2-1.6,4-3.7,4c-2,0-3.6-1.8-3.6-4s1.6-4,3.7-4C334.3,433.8,335.9,435.6,335.9,437.8z"/>
				</g>
				<g>
					<path class="st5" d="M347.2,437.9c0,2.2-1.6,4-3.7,4c-2,0-3.6-1.8-3.6-4s1.6-4,3.7-4C345.5,433.9,347.2,435.7,347.2,437.9z"/>
				</g>
				<g>
					<path class="st5" d="M358.5,437.9c0,2.2-1.6,4-3.7,4c-2,0-3.6-1.8-3.6-4s1.6-4,3.7-4C356.9,433.9,358.5,435.7,358.5,437.9z"/>
				</g>
			</g>
		</g>
		<g>
			<g>
				<path class="st7" d="M342.4,173c2.4-1,4.1-3.6,4.1-6.6c0-3.9-2.9-7.1-6.4-7.1c-3.6,0-6.5,3.2-6.5,7.1c0,3,1.7,5.6,4.1,6.6
					c-9.9,1.6-9.5,12.7-9.5,12.7l23.5,0.1C351.7,185.8,352.3,174.5,342.4,173z"/>
				<path class="st8" d="M342.4,173c2.4-1,4.1-3.6,4.1-6.6c0-3.9-2.9-7.1-6.4-7.1c-3.6,0-6.5,3.2-6.5,7.1c0,3,1.7,5.6,4.1,6.6
					c-9.9,1.6-9.5,12.7-9.5,12.7l23.5,0.1C351.7,185.8,352.3,174.5,342.4,173z"/>
			</g>
			<g>
				
					<rect x="333.5" y="156.3" transform="matrix(4.779532e-03 -1 1 4.779532e-03 138.995 535.8454)" class="st5" width="10.4" height="83.6"/>
				
					<rect x="333.5" y="156.3" transform="matrix(4.779532e-03 -1 1 4.779532e-03 138.995 535.8454)" class="st9" width="10.4" height="83.6"/>
			</g>
		</g>
	</g>
</g>
<g>
	<g>
		<path class="st1" d="M592.9,636.5c0,0.1-131,0.2-292.5,0.2c-161.6,0-292.6-0.1-292.6-0.2s131-0.2,292.6-0.2
			C461.9,636.3,592.9,636.4,592.9,636.5z"/>
	</g>
</g>
<g>
	<g>
		<g>
			<path class="st1" d="M109.6,401.3c-0.9-2.8-3.6-4.9-6.4-5c0.7-2.1-0.7-4.6-2.7-5.5c-2-0.9-4.4-0.5-6.4,0.5
				c-1.4,0.7-2.7,1.7-4.2,2c-2,0.5-4.1-0.2-6.1-0.2c-4.2-0.1-8.3,2.4-10.3,6.2c-0.7,1.3-1.1,2.8-1.8,4.1c-0.6,1-1.4,2-2,3
				c-1.7,3-1.4,7.1,0.7,9.9l28.8-6.9c2.3,1.7,5.7,1.6,8-0.1C109.4,407.4,110.4,404.1,109.6,401.3z"/>
		</g>
		<g>
			<g>
				<polygon class="st10" points="175.8,510.9 148.1,508.1 146.5,523 177.8,521.9 				"/>
			</g>
			<g>
				<g>
					<g>
						<g>
							<g>
								<path class="st10" d="M196.9,519.7c-0.4,0.5-1,0.8-1.6,0.6c-0.1,0-0.2-0.1-0.4-0.1c-0.8-0.4-0.5-2.2-0.5-2.2l-4.1-1.4
									c0,0-6,2.7-8.3,4.8c-2.3,2.1-6.9-0.7-6.9-0.7l-0.3-9.5l8.8-5.9c0,0-0.5,0.4,0.2-0.9c0.7-1.3,3.1-0.4,3.1-0.4
									c0.5-0.6,2.1-0.6,2.1-0.6l6.6,1.9c1.4,0.4,2.5,1.4,3,2.8l2.1,5.1c0,0,1,3.6,0.6,4.3c-0.5,1.1-1.7,0.7-1.7,0.7
									s-0.7,2.2-1.2,2.1C197.9,520.3,196.9,519.7,196.9,519.7L196.9,519.7z"/>
							</g>
						</g>
					</g>
				</g>
				<g>
					<g>
						<g>
							<g>
								<g>
									<path class="st11" d="M183.8,520.1c0,0,0.2-0.1,0.4-0.2c0.3-0.2,0.8-0.4,1.3-0.8c1.1-0.6,2.8-1.5,4.9-2.4h-0.1
										c1.2,0.4,2.6,0.9,4.1,1.4l-0.1-0.2c-0.1,0.3-0.1,0.7-0.1,1.1c0,0.4,0.1,0.8,0.3,1.1c0.1,0.2,0.3,0.3,0.5,0.3
										c0.2,0.1,0.4,0.1,0.6,0.1c0.4,0,0.8-0.2,1.1-0.4c0.1-0.1,0.1-0.1,0.2-0.2l0.1-0.1l0,0l0,0l0,0c0.1,0-0.5,0.1-0.3,0l0,0l0,0
										l0.1,0.1c0.2,0.1,0.3,0.2,0.5,0.3c0.2,0.1,0.4,0.2,0.6,0.2c0.1,0,0.2,0.1,0.3,0.1s0.2,0,0.4,0c0.3-0.1,0.4-0.3,0.5-0.5
										c0.1-0.2,0.2-0.4,0.3-0.6c0.2-0.4,0.3-0.8,0.4-1.2l-0.3,0.1c0.5,0.2,1.2,0.2,1.6-0.3c0.2-0.2,0.4-0.5,0.4-0.8
										c0-0.3,0-0.6,0-0.9c-0.1-1.1-0.4-2.2-0.7-3.3v0l0,0c-0.4-0.9-0.8-1.8-1.1-2.7c-0.2-0.6-0.5-1.2-0.7-1.7
										c-0.2-0.6-0.4-1.2-0.8-1.7c-0.4-0.5-0.8-1-1.4-1.3c-0.5-0.3-1.1-0.5-1.7-0.6c-2.2-0.6-4.3-1.2-6.2-1.8l0,0h0
										c-0.4,0-0.8,0-1.2,0.1c-0.4,0.1-0.8,0.2-1.1,0.5l0.2,0c-0.7-0.4-1.5-0.6-2.2-0.2c-0.7,0.3-1.1,1-1.3,1.6l0.1-0.1
										c-2.5,1.7-4.6,3.1-6,4.1c-0.7,0.5-1.2,0.8-1.6,1.1c-0.4,0.3-0.6,0.4-0.6,0.4s0.2-0.1,0.6-0.3c0.4-0.3,1-0.6,1.7-1
										c1.5-1,3.6-2.3,6.1-3.9l0,0l0-0.1c0.2-0.5,0.6-1.1,1.2-1.4c0.6-0.3,1.3-0.1,1.8,0.2l0.1,0.1l0.1-0.1
										c0.2-0.2,0.5-0.3,0.9-0.4s0.7-0.1,1.1-0.1l-0.1,0c1.9,0.6,4,1.2,6.2,1.8c0.6,0.2,1.1,0.3,1.6,0.6c0.5,0.3,0.9,0.7,1.2,1.2
										c0.3,0.5,0.5,1,0.8,1.6c0.2,0.6,0.5,1.1,0.7,1.7c0.4,0.9,0.8,1.9,1.1,2.7l0,0c0.3,1.1,0.5,2.2,0.7,3.2c0,0.3,0.1,0.5,0,0.8
										c0,0.2-0.1,0.4-0.3,0.6c-0.3,0.3-0.8,0.3-1.2,0.2l-0.2-0.1l-0.1,0.2c-0.1,0.4-0.3,0.8-0.4,1.1c-0.1,0.3-0.4,0.8-0.6,0.9
										c0,0-0.1,0-0.2,0c-0.1,0-0.2,0-0.2-0.1c-0.2-0.1-0.3-0.1-0.5-0.2c-0.2-0.1-0.3-0.2-0.5-0.3l-0.1-0.1h0l0,0
										c0.2,0-0.3,0.1-0.3,0l0,0l0,0l0,0l0,0c-0.1,0.1-0.1,0.1-0.2,0.2c-0.2,0.2-0.6,0.3-0.9,0.3c-0.2,0-0.3,0-0.4-0.1
										c-0.2,0-0.3-0.1-0.4-0.2c-0.3-0.5-0.3-1.3-0.2-1.9l0-0.2l-0.1,0c-1.5-0.5-2.9-1-4.1-1.4l-0.1,0l-0.1,0
										c-2.1,1-3.8,1.9-4.9,2.6c-0.6,0.3-1,0.6-1.2,0.8C183.9,520,183.8,520.1,183.8,520.1z"/>
								</g>
							</g>
						</g>
					</g>
				</g>
			</g>
			<g>
				<g>
					<g>
						<path class="st11" d="M187.7,506.6c0,0,0.7,0.5,2.1,1c1.3,0.5,3.2,1.1,5.5,1.3l-0.2-0.2c0.1,0.4,0.1,0.7,0.2,1.1
							c0.6,2.5,1.6,4.7,2.6,6c0.5,0.7,0.9,1.2,1.2,1.6s0.5,0.5,0.5,0.5c0.1,0-0.6-0.8-1.5-2.2c-0.9-1.4-1.9-3.5-2.4-6
							c-0.1-0.4-0.1-0.7-0.2-1.1l0-0.2l-0.2,0c-2.2-0.2-4.1-0.7-5.4-1.2C188.5,506.9,187.7,506.6,187.7,506.6z"/>
					</g>
				</g>
			</g>
			<g>
				<g>
					<g>
						<path class="st11" d="M193.4,511.8c-0.1,0,0,2,1.1,4.2c1,2.2,2.4,3.5,2.5,3.5c0.1-0.1-1.1-1.5-2.1-3.7
							C193.9,513.6,193.6,511.7,193.4,511.8z"/>
					</g>
				</g>
			</g>
			<g>
				<g>
					<g>
						<path class="st11" d="M174.3,517.7c0,0,0.1,0.1,0.2,0.2c0.1,0.1,0.3,0.2,0.6,0.4c0.6,0.3,1.4,0.6,2.6,0.8c1.1,0.1,2.6,0,4-0.8
							c1.4-0.7,2.8-2.1,3.6-3.9l-0.3,0.1c1.5,0.5,3.1,0.9,4.8,1c0.6,0,1.2,0,1.8,0c0.6,0,1.2-0.1,1.8-0.3c0.3-0.1,0.6-0.3,0.8-0.7
							c0.2-0.3,0.2-0.7,0-1c-0.1-0.3-0.4-0.6-0.7-0.7c-0.2-0.1-0.5-0.2-0.8-0.3c-2-0.9-3.8-1.5-5.3-2c-1.5-0.5-2.8-0.9-3.7-1.1
							c-0.9-0.2-1.4-0.3-1.4-0.3s0.5,0.2,1.3,0.5c0.9,0.3,2.1,0.7,3.6,1.2c1.5,0.5,3.3,1.2,5.2,2.1c0.2,0.1,0.5,0.2,0.7,0.3
							c0.2,0.1,0.4,0.3,0.4,0.5c0.1,0.2,0.1,0.5,0,0.7c-0.1,0.2-0.3,0.3-0.5,0.4c-0.5,0.2-1.1,0.2-1.7,0.3s-1.2,0-1.8,0
							c-1.7-0.1-3.3-0.5-4.7-1l-0.2-0.1l-0.1,0.2c-0.7,1.7-2,3-3.3,3.8c-1.3,0.8-2.7,0.9-3.8,0.9c-1.1-0.1-2-0.4-2.6-0.6
							C174.6,517.8,174.3,517.6,174.3,517.7z"/>
					</g>
				</g>
			</g>
		</g>
		<g>
			<g>
				<g>
					<g>
						<g>
							<g>
								<g>
									<path class="st10" d="M85.9,474c-6.8-0.1-12.2-5.9-12.3-13l-0.5-43.2c-0.5-11.6,5.4-21.6,16.4-21.8l1,0
										c10.2,0.5,18.3,9.1,18.7,20c0.4,10.1,0.8,19.8,0.5,25.2c-0.6,11.1-11.2,12.2-11.2,12.2c0,0,0,4.2,0,7.4
										C98.4,468.1,92.8,474.1,85.9,474L85.9,474z"/>
								</g>
							</g>
						</g>
					</g>
				</g>
				<g>
					<g>
						<g>
							<g>
								<g>
									<g>
										<path class="st11" d="M98.4,453.4c0,0-6.6,0.1-13.5-4.9c0,0,2.9,8.5,13.4,8L98.4,453.4z"/>
									</g>
								</g>
							</g>
						</g>
					</g>
				</g>
				<g>
					<g>
						<g>
							<g>
								<g>
									<g>
										<g>
											<g>
												<g>
													<g>
														<g>
															<g>
																<path class="st1" d="M105.2,425.9c0,0.8-0.7,1.5-1.5,1.5s-1.5-0.7-1.5-1.5c0-0.8,0.7-1.5,1.5-1.5
																	C104.6,424.3,105.3,425,105.2,425.9z"/>
															</g>
														</g>
													</g>
												</g>
											</g>
										</g>
									</g>
								</g>
							</g>
						</g>
					</g>
				</g>
				<g>
					<g>
						<g>
							<g>
								<g>
									<g>
										<g>
											<g>
												<g>
													<g>
														<g>
															<g>
																<g>
																	<path class="st1" d="M106.7,420.8c-0.2,0.2-1.3-0.7-2.9-0.8c-1.6-0.1-2.8,0.7-3,0.5c-0.1-0.1,0.1-0.5,0.7-0.8
																		c0.5-0.4,1.4-0.7,2.4-0.7s1.8,0.5,2.3,0.9C106.6,420.3,106.8,420.7,106.7,420.8z"/>
																</g>
															</g>
														</g>
													</g>
												</g>
											</g>
										</g>
									</g>
								</g>
							</g>
						</g>
					</g>
				</g>
				<g>
					<g>
						<g>
							<g>
								<g>
									<g>
										<g>
											<g>
												<g>
													<g>
														<g>
															<g>
																<path class="st1" d="M90.7,425.9c0,0.8-0.7,1.5-1.5,1.5s-1.5-0.7-1.5-1.5c0-0.8,0.7-1.5,1.5-1.5
																	C90,424.3,90.7,425,90.7,425.9z"/>
															</g>
														</g>
													</g>
												</g>
											</g>
										</g>
									</g>
								</g>
							</g>
						</g>
					</g>
				</g>
				<g>
					<g>
						<g>
							<g>
								<g>
									<g>
										<g>
											<g>
												<g>
													<g>
														<g>
															<g>
																<g>
																	<path class="st1" d="M90.9,420.5c-0.2,0.2-1.3-0.7-2.9-0.8c-1.6-0.1-2.8,0.7-3,0.5c-0.1-0.1,0.1-0.5,0.7-0.8
																		c0.5-0.4,1.4-0.7,2.4-0.7s1.8,0.5,2.3,0.9C90.9,420,91,420.4,90.9,420.5z"/>
																</g>
															</g>
														</g>
													</g>
												</g>
											</g>
										</g>
									</g>
								</g>
							</g>
						</g>
					</g>
				</g>
				<g>
					<g>
						<g>
							<g>
								<g>
									<g>
										<g>
											<g>
												<g>
													<g>
														<g>
															<g>
																<path class="st1" d="M96.2,433.9c0-0.1,1-0.2,2.6-0.4c0.4,0,0.8-0.1,0.9-0.4c0.1-0.3,0-0.8-0.2-1.3
																	c-0.3-1.1-0.7-2.2-1.1-3.4c-1.5-4.8-2.6-8.8-2.4-8.8s1.6,3.8,3.1,8.6c0.4,1.2,0.7,2.3,1,3.4
																	c0.1,0.5,0.4,1.1,0.2,1.7c-0.1,0.3-0.4,0.5-0.7,0.6c-0.3,0.1-0.5,0.1-0.7,0.1C97.2,434,96.2,434,96.2,433.9z"/>
															</g>
														</g>
													</g>
												</g>
											</g>
										</g>
									</g>
								</g>
							</g>
						</g>
					</g>
				</g>
				<g>
					<g>
						<g>
							<g>
								<g>
									<g>
										<g>
											<g>
												<path class="st1" d="M91.7,415.1c-0.2,0.4-1.8-0.1-3.7-0.2c-1.9-0.2-3.5,0.1-3.7-0.3c-0.1-0.2,0.3-0.6,0.9-0.9
													s1.7-0.6,2.8-0.5c1.1,0.1,2.1,0.5,2.8,0.9C91.5,414.5,91.8,414.9,91.7,415.1z"/>
											</g>
										</g>
									</g>
								</g>
							</g>
						</g>
					</g>
				</g>
				<g>
					<g>
						<g>
							<g>
								<g>
									<g>
										<g>
											<g>
												<path class="st1" d="M107,415.7c-0.3,0.4-1.6-0.1-3.2-0.1c-1.6-0.1-2.9,0.2-3.2-0.2c-0.1-0.2,0.1-0.6,0.7-0.9
													c0.6-0.4,1.6-0.6,2.6-0.6c1.1,0.1,2,0.4,2.6,0.9C106.9,415.1,107.1,415.6,107,415.7z"/>
											</g>
										</g>
									</g>
								</g>
							</g>
						</g>
					</g>
				</g>
				<g>
					<g>
						<g>
							<g>
								<path class="st10" d="M73.6,426c-0.2-0.1-7.1-2.6-7.2,5c-0.1,7.6,7.1,6.1,7.2,5.9C73.6,436.8,73.6,426,73.6,426z"/>
							</g>
						</g>
					</g>
				</g>
				<g>
					<g>
						<g>
							<g>
								<g>
									<path class="st11" d="M71.4,434.1c0,0-0.1,0.1-0.3,0.2s-0.6,0.2-0.9,0c-0.8-0.3-1.4-1.6-1.4-3c0-0.7,0.1-1.4,0.4-1.9
										c0.2-0.6,0.6-0.9,0.9-1c0.4-0.1,0.7,0.2,0.7,0.4c0.1,0.2,0.1,0.4,0.1,0.4c0,0,0.2-0.1,0.1-0.4c0-0.1-0.1-0.3-0.3-0.5
										c-0.2-0.1-0.4-0.2-0.7-0.2c-0.6,0-1.1,0.6-1.3,1.2c-0.3,0.6-0.5,1.3-0.4,2.1c0,1.5,0.8,3,1.8,3.3c0.5,0.1,0.9,0,1.1-0.2
										C71.4,434.3,71.4,434.1,71.4,434.1z"/>
								</g>
							</g>
						</g>
					</g>
				</g>
				<g>
					<g>
						<g>
							<g>
								<path class="st1" d="M78.7,407c0.3-2,1.7-3.6,3.6-4.2c1.6-0.5,3.2-0.5,4.8,0.1c4,1.5,10.9,3.8,12.7,2.3
									c2.6-2.1,3.2-3.5,3.2-3.5l1.4,1.6c1.2-0.7-2.3-4.7-5.2-6.1c-4.3-2.1-10.9-3.4-14.8-2.2c-4.8,1.4-8.8,4-11.2,8.6
									s-3.3,10-3.2,15.3c0,1.6-0.2,6.2,1.3,6.6c1.2,0.3,2.7,0.8,2.6,3.1c0,0.9,0.2,1.7,0.7,2.3c1.3,1.5,2.9,0.1,3.7-1.3
									c1.6-3,1.8-6.5,1.9-10c0.1-2.4,0.2-4.9-0.4-7.3c0,0-1.1-3-1.2-4.7C78.7,407.6,78.7,407.3,78.7,407z"/>
							</g>
						</g>
					</g>
				</g>
			</g>
			<g>
				<g>
					<path class="st1" d="M96.5,438c0,0.1-0.3,0.4-0.9,0.5c-0.7,0.1-1.7,0.1-2.6-0.4c-0.9-0.5-1.5-1.4-1.8-2
						c-0.2-0.6-0.2-1.1-0.1-1.1c0.2-0.1,0.8,1.5,2.3,2.3C94.9,438.2,96.4,437.8,96.5,438z"/>
				</g>
			</g>
		</g>
		<g>
			<path class="st3" d="M103.9,539.8L69.6,532l-22-56.5c0,0-29.4,6.8-34.3,23.8C9.2,514,0.5,579,20.2,619.1
				c5.1,10.3,15.4,16.7,26.6,16.7h149.9c18.9,0,34.8-14.7,36.9-34.2c0.9-7.8,1.4-15.3,1.3-20.2l-24.1-19.1L103.9,539.8z"/>
		</g>
		<g class="st12">
			<g>
				<path d="M195.5,559.4c10.6,14.3,23.4,27.1,38.7,35.5l0.7-19.4l-28.4-20.9L195.5,559.4z"/>
			</g>
		</g>
		<g>
			<g>
				<path class="st13" d="M82.4,464.5c0,1,7.8,4.4,11.3,2.9c5.4-2.2,4.7-6.6,4.7-6.6l3,3.2l29.8,47.1l22.2,15.2l-35.5,11.6
					l-37.2-44.3L82.4,464.5z"/>
			</g>
			<g>
				<path class="st7" d="M73,448.7l-0.8,1.5l-3.5,6.8l-14.7,9.7l30.3,37.3l13.8,33.9l33.2,10.8c0,0-15.8-25.1-20.7-38
					c-4.9-12.8-5.4-12.2-9.9-21.6c-4.3-9-8.1-20.4-8.1-20.4L73,448.7z"/>
			</g>
			<g>
				<path class="st7" d="M144,515.9l6.5,6.3l1.8,3.9l-24.2-11.7l-17.4-25.3c0,0-6.2-14.3-8.4-19.4c-2.2-5.4-3.9-8.4-3.9-8.4l0-4.2
					l8.8,8.2l7.3,2.3l12.3,20.1L144,515.9z"/>
			</g>
			<g>
				<path class="st7" d="M136.5,492.2c0,0-2.9-6.5-5.3-11.9c-5.4-12.1-18.1-13.3-18.1-13.3l14.1,40.4l17.2,12.7c0,0,4.9,1.8,5.5,0
					c0,0,3.6-13.4,3.5-13.5c-0.1,0-12.3-3.8-12.3-3.8l-4.9-11.3"/>
			</g>
			<g>
				<g>
					<path class="st1" d="M162.4,479.6l-16.7,28.9l17.5-0.5l15.5-26.8c0.6-1-0.1-2.3-1.3-2.3h-13.7
						C163.2,478.8,162.7,479.1,162.4,479.6z"/>
				</g>
				<g>
					<path class="st10" d="M98,512.3l41.9-5.2l7.1-12.8l5.5-3.1c0.9-0.5,2.1-0.5,2.9,0.2l0.5,0.4l4.1-0.5c0.7-0.1,1.4,0,2,0.4
						l2.9,1.7c0.4,0.3,0.7,0.7,0.7,1.2l0,0c0,0.9-0.8,1.6-1.6,1.4l-2.8-0.5l-4.3,1.5c0,0,2.8,0.3,3.1,2.5c0.4,2.2-1.1,2.2-1.1,2.2
						s2.9,1.8,0.9,4.3c0,0,2.4,1.7-0.3,4.9c-1.9,2.2-15.2,9.2-15.2,9.2l-46.3,17.8L98,512.3L98,512.3z"/>
				</g>
				<g>
					<g>
						<path class="st11" d="M159.8,506c0,0,0.3,0,0.7,0.4c0.4,0.4,0.7,1.2,0.4,2.1c-0.2,1-1,1.8-1.8,2.7c-0.8,0.9-1.8,1.7-2.9,2.5
							c-2.2,1.6-4.4,2.7-6.1,3.5c-1.6,0.8-2.6,1.2-2.6,1.1c0-0.1,0.9-0.6,2.5-1.4c1.6-0.8,3.7-2,5.9-3.5c1.1-0.8,2.1-1.6,2.9-2.4
							c0.8-0.8,1.5-1.6,1.8-2.5c0.3-0.8,0-1.6-0.3-1.9C160,506.2,159.7,506.1,159.8,506z"/>
					</g>
				</g>
				<g>
					<g>
						<path class="st11" d="M155.8,491.9c0,0.1-0.9,0.5-2.1,0.8c-1.2,0.3-2.2,0.5-2.2,0.4c0-0.1,0.9-0.5,2.1-0.8
							C154.8,491.9,155.8,491.8,155.8,491.9z"/>
					</g>
				</g>
				<g>
					<g>
						<path class="st11" d="M161.2,495.5c0,0.1-1.3,0.7-2.9,1.2c-1.6,0.6-3,0.9-3.1,0.8c0-0.1,1.3-0.7,2.9-1.2
							C159.8,495.7,161.2,495.4,161.2,495.5z"/>
					</g>
				</g>
				<g>
					<g>
						<path class="st11" d="M156.2,501.3c-0.1,0-0.2-0.4-0.3-0.8c-0.1-0.4-0.3-0.8-0.2-0.9c0.1-0.1,0.5,0.2,0.6,0.7
							S156.3,501.3,156.2,501.3z"/>
					</g>
				</g>
				<g>
					<g>
						<path class="st11" d="M157.6,506.3c-0.1,0-0.1-0.6-0.2-1.4c-0.2-0.7-0.5-1.2-0.4-1.3c0.1-0.1,0.6,0.4,0.8,1.2
							C158,505.6,157.7,506.3,157.6,506.3z"/>
					</g>
				</g>
			</g>
			<g>
				<path class="st7" d="M55.1,466c-1.4,0.9-13.2,9.2-11.5,23c1.7,13.7,28,44.8,33.4,45.4l21,3.6v-25.7l-10.1-0.6l-13.2-26.9
					L55.1,466z"/>
			</g>
			<g>
				<g>
					<path class="st1" d="M98,511c0,0-0.3,0-0.8,0.1c-0.6,0-1.3,0-2.1,0.1c-1.9,0-4.5,0.1-7.5,0.2h-0.1l-0.1-0.1
						c-1.6-2.2-3.4-4.7-5.3-7.4c-3.2-4.5-6-8.5-8.1-11.4c-1-1.4-1.8-2.6-2.4-3.5c-0.6-0.8-0.9-1.3-0.8-1.3c0,0,0.4,0.4,1,1.2
						c0.7,0.9,1.5,2,2.5,3.4c2.1,2.9,5,6.9,8.2,11.4c1.9,2.7,3.7,5.2,5.3,7.5l-0.2-0.1c3.1,0,5.6,0,7.5,0c0.9,0,1.6,0,2.1,0
						C97.8,511,98,511,98,511z"/>
				</g>
			</g>
			<g>
				<g>
					<path class="st1" d="M92.9,472.1c0,0-0.2-0.3-0.4-0.8c-0.3-0.6-0.6-1.3-1-2.2l0.2,0c-0.6,0.9-1.3,2.1-2,3.6
						c-0.7,1.5-1.5,3.2-2.6,4.8l-0.2,0.2l-0.2-0.2c-1.4-1.7-2.9-3.6-4.6-5.5c-3.7-4.1-7.2-7.7-9.7-10.3c-1.2-1.3-2.2-2.3-3-3.1
						c-0.7-0.8-1.1-1.2-1-1.2s0.4,0.4,1.2,1.1c0.8,0.8,1.8,1.8,3.1,3c2.6,2.6,6.1,6.1,9.8,10.2c1.7,1.9,3.2,3.8,4.6,5.5l-0.3,0
						c1.1-1.6,1.9-3.3,2.7-4.7c0.7-1.5,1.5-2.7,2.2-3.6l0.1-0.2l0.1,0.2c0.4,0.9,0.7,1.7,0.9,2.3C92.8,471.8,92.9,472.1,92.9,472.1z
						"/>
				</g>
			</g>
			<g>
				<g>
					<path class="st1" d="M107.3,465.5c0,0,0.3,0.4,0.6,1.3s0.7,2.1,1.1,3.6l0.3,1.1l-0.7-0.9c-0.8-1.1-1.9-2.2-3.1-3.4
						c-1-0.9-1.9-1.8-2.8-2.6l0.4-0.1c-0.2,1.7-0.1,3.2-0.1,4.3c0,1.1-0.2,1.7-0.2,1.7c-0.1,0,0-0.6-0.1-1.7c0-1.1-0.2-2.6,0-4.4
						l0-0.4l0.3,0.3c0.9,0.8,1.9,1.6,2.8,2.5c1.2,1.2,2.3,2.4,3.1,3.5l-0.4,0.2c-0.4-1.5-0.7-2.8-0.9-3.6
						C107.4,466,107.2,465.5,107.3,465.5z"/>
				</g>
			</g>
			<g>
				<g>
					<path class="st1" d="M137.8,507.4c0,0-0.4-0.3-1-1c-0.7-0.7-1.6-1.6-2.6-2.7c-1.1-1.2-2.4-2.5-3.8-4.1
						c-0.6-0.9-1.2-1.8-1.9-2.7c-0.7-1-1.2-2-1.8-3.2c-1-2.3-1.8-4.5-2.4-6.5c-0.7-2-1.3-3.8-1.8-5.4c-0.6-1.5-1.1-2.7-1.4-3.5
						c-0.4-0.8-0.6-1.2-0.6-1.3c0,0,0.1,0.1,0.2,0.3c0.1,0.2,0.3,0.5,0.5,0.9c0.4,0.8,1,2,1.6,3.5s1.2,3.3,1.9,5.3
						c0.7,2,1.5,4.2,2.5,6.5c0.5,1.1,1,2.2,1.7,3.1c0.7,0.9,1.2,1.9,1.9,2.7c1.3,1.6,2.6,3,3.7,4.2c1,1.1,1.8,2.1,2.5,2.8
						C137.5,507,137.8,507.3,137.8,507.4z"/>
				</g>
			</g>
		</g>
		<g>
			<g>
				<path class="st1" d="M149.9,521.9l79.6-2.3c1.3,0,2.5,0.2,3.7,0.7c2.9,1.3,8.1,4.5,11.7,12.4C250,544,274.1,592,274.1,592
					l-24.4,13l-29.9-57.5l-92.2-8.1l1.1-7.6L149.9,521.9z"/>
			</g>
			<g>
				<g>
					<g>
						<g>
							<g>
								<g>
									<g>
										<g>
											<path class="st6" d="M242.5,594.9l12.7,22.6l0.9,5.7c0.5,3.5,3.7,5.9,7,5.4l38.7-6.2c1.9-0.3,3.2-2.4,2.4-4.3
												c-0.3-0.7-0.9-1.3-1.8-1.5c-3.2-0.8-28.2-10.3-28.2-10.3l-10.4-21.6L242.5,594.9z"/>
										</g>
									</g>
								</g>
							</g>
						</g>
					</g>
					<g>
						<g>
							<path class="st1" d="M253.1,600.1c-0.1,0.1-1.4-1.5-2.9-3.6s-2.6-3.8-2.5-3.9s1.4,1.5,2.9,3.6S253.2,600,253.1,600.1z"/>
						</g>
					</g>
					<g>
						<g>
							<path class="st1" d="M260.7,596.9c-0.1,0.1-1.4-1.5-2.7-3.8c-1.3-2.2-2-4.2-1.9-4.3c0.1,0,1,1.8,2.3,4
								C259.7,595.1,260.8,596.8,260.7,596.9z"/>
						</g>
					</g>
					<g>
						<g>
							<g>
								<g>
									<g>
										<path class="st1" d="M266,627.8c-0.1,0-0.3-0.8-0.9-2c-0.6-1.2-1.6-2.7-3.1-3.9c-1.5-1.2-3.2-1.9-4.4-2.2s-2-0.3-2-0.4
											c0-0.1,0.8-0.2,2.1,0c1.3,0.2,3.1,0.8,4.7,2.1s2.6,2.9,3.1,4.2C266,627,266.1,627.8,266,627.8z"/>
									</g>
								</g>
							</g>
						</g>
					</g>
					<g>
						<g>
							<g>
								<g>
									<g>
										<path class="st1" d="M292.1,623.9c0,0-0.4-0.5-0.6-1.5c-0.2-1-0.3-2.5,0.2-3.9c0.5-1.5,1.4-2.6,2-3.3
											c0.7-0.7,1.2-1.1,1.2-1c0,0.1-0.3,0.5-0.9,1.3c-0.6,0.8-1.3,1.9-1.8,3.3c-0.5,1.4-0.5,2.7-0.3,3.7
											C292,623.3,292.2,623.9,292.1,623.9z"/>
									</g>
								</g>
							</g>
						</g>
					</g>
				</g>
			</g>
			<g>
				<path class="st1" d="M125.6,533.1c0,0,82.1-8.5,86.1-8.2c7.4,0.6,20.9,12.7,45,29.4c20,13.9,34.6,30.1,34.6,30.1l-7.7,18.2
					c0,0-54-20.4-62.5-27.7c-7-6.1-19.9-14.8-19.9-14.8l-31.7,0.3l-23.5,2.2c-11.8,1.1-23.3-4.2-30.5-13.9l-9.1-12.4L125.6,533.1z"
					/>
			</g>
			<g>
				<g>
					<path class="st3" d="M200.8,559.9c0,0,0.1,0.1,0.4,0.3c0.3,0.2,0.6,0.5,1.1,0.8c1,0.7,2.4,1.8,4.3,3.1
						c3.7,2.7,9.1,6.7,15.8,11.9c0.4,0.3,0.8,0.7,1.3,1c0.4,0.3,0.9,0.6,1.4,0.9c1,0.5,1.9,1.1,3,1.6c1,0.5,2.1,1,3.2,1.5
						c1.1,0.5,2.2,1,3.3,1.5c4.6,2,9.5,4.2,14.8,6.4c10.5,4.4,22.3,9.2,35.1,14.3l-0.3,0.1c2.2-5.8,4.6-12,7-18.3l0,0.3
						c-3-3.2-6.3-6.6-9.6-10.1l0,0c-2.2-2-4.7-4.2-7.1-6.3c-15.8-13.6-31.6-25.2-46-35l0,0l0,0c-2.2-2-4.6-3.6-7-5.1
						c-2.4-1.4-4.9-2.6-7.4-3.3c-0.6-0.2-1.3-0.3-1.9-0.5c-0.6-0.1-1.3-0.2-1.9-0.3c-0.6,0-1.3-0.1-1.9-0.1c-0.6,0-1.3,0-1.9,0
						c-2.5,0-5,0-7.4,0c-9.5,0-17.9,0-24.8,0c-6.9,0-12.4,0-16.1-0.1c-1.9,0-3.3,0-4.3,0c-0.5,0-0.8,0-1.1,0c-0.2,0-0.4,0-0.4,0
						s0.1,0,0.4,0c0.3,0,0.6,0,1.1,0c1,0,2.4,0,4.3,0c3.7,0,9.2,0,16.1-0.1c6.9,0,15.3,0,24.8,0c2.4,0,4.8,0,7.4,0
						c0.6,0,1.3,0,1.9,0c0.6,0,1.3,0.1,1.9,0.1c0.6,0.1,1.3,0.2,1.9,0.3c0.6,0.2,1.3,0.3,1.9,0.5c2.6,0.8,5.1,1.9,7.5,3.4
						c2.4,1.4,4.8,3.1,7.1,5.1l0,0c14.4,9.8,30.3,21.4,46.1,35c2.5,2.1,4.9,4.3,7.1,6.3l0,0l0,0c3.3,3.5,6.5,6.9,9.6,10.1l0.1,0.1
						l-0.1,0.2c-2.4,6.3-4.8,12.5-7,18.3l-0.1,0.2l-0.2-0.1c-12.7-5.1-24.5-9.9-35.1-14.4c-5.3-2.2-10.2-4.4-14.7-6.4
						c-1.1-0.5-2.2-1-3.3-1.5c-1.1-0.5-2.1-1-3.2-1.5c-1-0.5-2-1.1-3-1.6c-0.5-0.3-0.9-0.6-1.4-0.9s-0.9-0.7-1.3-1
						c-6.6-5.2-12-9.2-15.7-12c-1.8-1.4-3.2-2.4-4.2-3.2c-0.5-0.4-0.8-0.6-1.1-0.8C200.9,560,200.8,559.9,200.8,559.9z"/>
				</g>
			</g>
			<g>
				<g>
					<g>
						<g>
							<g>
								<g>
									<g>
										<g>
											<g>
												<path class="st6" d="M266.1,598l22.8,9.3l3.8,4.2c2.3,2.6,6.2,2.8,8.7,0.3l28.7-27.5c1.4-1.4,1.3-3.9-0.3-4.9
													c-0.6-0.4-1.4-0.6-2.4-0.2c-3.1,1.2-29,7.8-29,7.8l-17.3-14.3L266.1,598z"/>
											</g>
											<g>
												<g>
													<path class="st1" d="M266.1,598c0,0,0.1-0.2,0.2-0.4c0.2-0.3,0.4-0.8,0.8-1.3c0.7-1.2,1.7-2.9,3-5.1
														c2.6-4.4,6.4-10.8,10.9-18.6l0.1-0.2l0.1,0.1c5.1,4.2,10.9,9,17.3,14.3l-0.2,0c4.9-1.3,10-2.6,15.4-4
														c2.7-0.7,5.4-1.5,8.1-2.2c1.4-0.4,2.8-0.8,4.1-1.2c0.4-0.1,0.7-0.2,1-0.3c0.3-0.1,0.7-0.2,1.1-0.3
														c0.8-0.1,1.6,0.3,2.2,0.8c1.2,1.1,1.2,3.1,0.3,4.4c-0.2,0.3-0.5,0.6-0.8,0.8l-0.8,0.8c-0.5,0.5-1,1-1.6,1.5
														c-2.1,2-4.1,3.9-6.1,5.9c-4,3.8-7.9,7.5-11.6,11.1c-1.9,1.8-3.6,3.5-5.4,5.2c-0.9,0.8-1.7,1.7-2.6,2.5
														c-0.4,0.4-0.9,0.8-1.4,1.1c-0.5,0.3-1,0.6-1.6,0.7c-2.2,0.7-4.6,0-6.1-1.6c-1.4-1.6-2.8-3.1-4-4.5l0.1,0
														c-7-2.9-12.7-5.2-16.7-6.9c-1.9-0.8-3.5-1.4-4.5-1.9c-0.5-0.2-0.9-0.4-1.2-0.5C266.2,598,266.1,598,266.1,598
														s0.1,0,0.4,0.2c0.3,0.1,0.7,0.3,1.2,0.5c1.1,0.4,2.6,1,4.6,1.8c3.9,1.6,9.6,3.9,16.6,6.7l0,0l0,0
														c1.3,1.4,2.6,3,4.1,4.5c1.4,1.5,3.7,2.1,5.8,1.5c0.5-0.1,1-0.4,1.5-0.7c0.5-0.3,0.9-0.7,1.3-1.1
														c0.9-0.8,1.7-1.6,2.6-2.5c1.7-1.7,3.5-3.4,5.4-5.2c3.7-3.5,7.5-7.2,11.6-11.1c2-1.9,4-3.9,6.1-5.9c0.5-0.5,1-1,1.6-1.5
														c0.5-0.5,1.1-1,1.5-1.5c0.8-1.1,0.8-2.8-0.2-3.8c-0.5-0.5-1.2-0.8-1.8-0.7c-0.3,0-0.6,0.1-1,0.2
														c-0.4,0.1-0.7,0.2-1,0.3c-1.4,0.4-2.8,0.8-4.2,1.2c-2.8,0.7-5.5,1.5-8.1,2.2c-5.4,1.4-10.5,2.7-15.4,4l-0.1,0l-0.1-0.1
														c-6.4-5.3-12.2-10.1-17.3-14.3l0.2,0c-4.6,7.7-8.4,14-11,18.4c-1.3,2.2-2.3,3.9-3,5.1c-0.4,0.6-0.6,1-0.8,1.3
														C266.2,597.8,266.1,598,266.1,598z"/>
												</g>
											</g>
										</g>
									</g>
								</g>
							</g>
						</g>
					</g>
					<g>
						<g>
							<g>
								<g>
									<g>
										<path class="st1" d="M303.4,609.5c-0.1,0.1-0.7-0.5-1.8-1.1c-1.1-0.6-2.8-1.3-4.7-1.5c-1.9-0.1-3.7,0.3-4.9,0.8
											c-1.2,0.5-1.9,0.9-1.9,0.8c0,0,0.6-0.6,1.8-1.2c1.2-0.6,3-1.1,5-0.9s3.8,0.9,4.9,1.7C302.9,608.8,303.5,609.5,303.4,609.5
											z"/>
									</g>
								</g>
							</g>
						</g>
					</g>
					<g>
						<g>
							<g>
								<g>
									<g>
										<path class="st1" d="M322.9,591.2c0,0-0.6-0.2-1.3-0.9c-0.7-0.7-1.6-1.8-2-3.4c-0.4-1.5-0.3-3-0.1-3.9
											c0.2-1,0.4-1.6,0.4-1.6c0.1,0,0,0.6-0.1,1.6c0,1-0.1,2.3,0.3,3.8s1.1,2.5,1.7,3.2C322.5,590.8,323,591.1,322.9,591.2z"/>
									</g>
								</g>
							</g>
						</g>
					</g>
				</g>
			</g>
		</g>
		<g>
			<path class="st3" d="M186.9,559.9c-1.8-8.7-5.4-17.5-12.5-22.4c-5.4-3.7-12.1-4.6-18.5-5.4C111,526.4,66.2,520.7,21.3,515
				c-1.2,22,7.9,49.3,17.1,69.1c1.4,3.1,3.1,6.2,5.8,8.1c3.3,2.3,7.7,2.3,11.7,2.2c45.2-1.2,90.5-3.2,135.5-8.3
				C189,577.5,188.6,568.6,186.9,559.9z"/>
		</g>
		<g>
			<g>
				<path class="st1" d="M70.8,521.3c0,0-0.6,0-1.6-0.1c-1.1-0.1-2.5-0.3-4.3-0.5c-3.6-0.4-8.6-1.1-14.2-1.9s-10.5-1.6-14.1-2.2
					c-1.8-0.3-3.2-0.6-4.2-0.8c-1-0.2-1.5-0.4-1.5-0.4c0,0,0.6,0,1.6,0.2c1.1,0.2,2.5,0.4,4.3,0.7c3.6,0.6,8.6,1.3,14.1,2.1
					c5.5,0.8,10.4,1.5,14.1,2c1.8,0.3,3.2,0.5,4.3,0.6C70.3,521.1,70.8,521.2,70.8,521.3z"/>
			</g>
		</g>
		<g>
			<g>
				<path class="st1" d="M71.5,635.8c0,0-0.1-0.1-0.1-0.3c-0.1-0.2-0.2-0.5-0.4-0.8c-0.3-0.7-0.8-1.8-1.4-3.1
					c-0.3-0.7-0.6-1.4-1-2.3c-0.3-0.8-0.7-1.8-1.1-2.7c-0.7-2-1.6-4.2-2.4-6.7c-0.4-1.3-0.8-2.6-1.3-4c-0.4-1.4-0.8-2.8-1.2-4.3
					c-0.9-3-1.6-6.3-2.3-9.7c-1.4-6.9-2.5-14.5-3.1-22.6c-0.5-8.1-0.4-15.9,0.1-22.9c0.3-3.5,0.6-6.8,1-9.9c0.2-1.5,0.4-3,0.6-4.5
					c0.3-1.4,0.5-2.8,0.7-4.1c0.4-2.6,1-5,1.5-7c0.2-1,0.5-2,0.7-2.9c0.2-0.9,0.5-1.7,0.7-2.4c0.4-1.4,0.7-2.5,0.9-3.3
					c0.1-0.3,0.2-0.6,0.3-0.8c0.1-0.2,0.1-0.3,0.1-0.3c0,0,0,0.1-0.1,0.3c0,0.2-0.1,0.5-0.2,0.9c-0.2,0.8-0.5,1.9-0.9,3.3
					c-0.2,0.7-0.4,1.5-0.6,2.4c-0.2,0.9-0.4,1.8-0.6,2.9c-0.4,2.1-1,4.4-1.4,7c-0.2,1.3-0.5,2.7-0.7,4.1c-0.2,1.4-0.4,2.9-0.6,4.5
					c-0.5,3.1-0.7,6.4-1,9.9c-0.4,7-0.5,14.7,0,22.8c0.6,8.1,1.7,15.7,3.1,22.6c0.8,3.4,1.4,6.7,2.3,9.7c0.4,1.5,0.8,3,1.2,4.3
					s0.8,2.7,1.2,4c0.8,2.5,1.6,4.8,2.3,6.7c0.4,1,0.7,1.9,1,2.8c0.3,0.8,0.7,1.6,0.9,2.3c0.6,1.3,1,2.4,1.3,3.2
					c0.1,0.3,0.2,0.6,0.3,0.8C71.5,635.7,71.5,635.8,71.5,635.8z"/>
			</g>
		</g>
		<g>
			<g>
				<path class="st1" d="M70.1,591.6c0,0.1-2.4,0.1-5.3,0c-2.9-0.1-5.3-0.4-5.3-0.5s2.4-0.1,5.3,0C67.7,591.2,70.1,591.5,70.1,591.6
					z"/>
			</g>
		</g>
		<g>
			<g>
				<path class="st1" d="M68.9,598c0,0.1-2.5-0.2-5.4-1.5c-2.9-1.2-5-2.8-4.9-2.9c0.1-0.1,2.2,1.2,5.1,2.4
					C66.4,597.2,68.9,597.8,68.9,598z"/>
			</g>
		</g>
		<g>
			<g>
				<path class="st1" d="M57.1,554.2c0.1,0.1-1.5,0.9-3.5,1.1c-2,0.2-3.7-0.3-3.6-0.4c0-0.2,1.6,0.1,3.6-0.1
					C55.5,554.7,57,554.1,57.1,554.2z"/>
			</g>
		</g>
		<g>
			<g>
				<path class="st1" d="M59.8,552.1c0,0.1-1.8,0.4-3.9-0.5c-2.1-0.9-3.1-2.5-3-2.5c0.1-0.1,1.3,1.2,3.2,2.1
					C58,552,59.8,552,59.8,552.1z"/>
			</g>
		</g>
		<g>
			<path class="st1" d="M107.1,402.5c-0.6-1.8-2.2-3.2-4-3.7c-1.8-0.5-3.7-0.3-5.5,0.2l-17.5,4.1c2.5,1.7,7.7,3.4,10.7,3.7
				c4.4,0.5,7.4,0.5,10-1c0.5,1.9,3,2.7,4.6,1.7C107.1,406.6,107.7,404.3,107.1,402.5z"/>
		</g>
		<g>
			<g>
				<path class="st1" d="M281.7,592.3c0,0.1-2.4-0.5-5.2-1.6c-2.8-1.1-5-2.3-4.9-2.4c0-0.1,2.3,0.9,5.1,2
					C279.5,591.4,281.8,592.2,281.7,592.3z"/>
			</g>
		</g>
		<g>
			<g>
				<path class="st1" d="M285.6,584.6c-0.1,0.1-2-1-4.5-2.2c-2.5-1.2-4.5-2.1-4.5-2.3c0-0.1,2.2,0.6,4.6,1.8
					C283.8,583.2,285.6,584.5,285.6,584.6z"/>
			</g>
		</g>
		<g>
			<g>
				<g>
					<g>
						<path class="st6" d="M146.4,529.8l35.2,0.5l42.5-8.7c1.4-0.3,2.4-1.4,2.6-2.9l5.8-39.7c0.3-2-1.4-3.6-3.2-3.3l-43.5,7.3
							c-1.2,0.2-2.2,1.2-2.4,2.5l-4.9,40.3l-32.2-0.2c-1.1,0-2,0.9-2,2l0,0C144.4,528.8,145.3,529.8,146.4,529.8z"/>
					</g>
					<g>
						<g>
							<path class="st1" d="M146.4,529.8c0,0-0.2,0-0.7-0.1c-0.4-0.2-1.1-0.6-1.3-1.5c-0.1-0.5-0.1-1,0.2-1.5c0.3-0.5,0.8-0.9,1.5-1
								c1.3,0,2.8,0,4.4,0c6.6,0,16.2,0,28.1,0.1l-0.2,0.1c1.4-11.6,3-25.4,4.9-40.6c0.2-1,0.9-1.9,1.9-2.3c0.5-0.2,1-0.2,1.4-0.3
								l1.4-0.2c1.9-0.3,3.8-0.6,5.7-1c3.8-0.6,7.7-1.3,11.7-2s8-1.4,12.1-2c2.1-0.4,4.1-0.7,6.2-1c1-0.2,2.1-0.4,3.1-0.5l1.6-0.3
								c0.5-0.1,1-0.2,1.6-0.2c1.2,0.1,2.3,1,2.6,2.2c0.2,0.6,0.1,1.3,0.1,1.8l-0.2,1.7c-0.3,2.3-0.7,4.5-1,6.7
								c-0.6,4.5-1.3,8.8-1.9,13.1c-0.6,4.3-1.2,8.5-1.9,12.7c-0.1,1-0.3,2.1-0.4,3.1c-0.1,0.5-0.1,1-0.2,1.5
								c-0.1,0.5-0.2,1.1-0.4,1.5c-0.5,1-1.4,1.7-2.4,1.9c-1,0.2-1.9,0.4-2.9,0.6c-15.1,3.1-28.6,5.8-39.8,8.1h0h0
								c-10.9-0.2-19.7-0.3-25.8-0.4c-3-0.1-5.4-0.1-7-0.1c-0.8,0-1.4,0-1.8,0C146.6,529.8,146.4,529.8,146.4,529.8s0.2,0,0.6,0
								c0.4,0,1,0,1.8,0c1.6,0,4,0,7,0c6.1,0.1,14.9,0.2,25.8,0.3h0c11.2-2.3,24.7-5.1,39.8-8.2c0.9-0.2,1.9-0.4,2.8-0.6
								c0.9-0.2,1.7-0.8,2.1-1.7c0.2-0.4,0.3-0.9,0.4-1.4c0.1-0.5,0.1-1,0.2-1.5c0.1-1,0.3-2,0.4-3.1c0.6-4.1,1.2-8.4,1.8-12.7
								c0.6-4.3,1.3-8.7,1.9-13.1c0.3-2.2,0.6-4.5,1-6.7l0.2-1.7c0.1-0.6,0.1-1.1,0-1.6c-0.3-1-1.2-1.8-2.3-1.9
								c-0.5,0-1,0.1-1.5,0.2l-1.6,0.3c-1.1,0.2-2.1,0.4-3.1,0.5c-2.1,0.4-4.1,0.7-6.2,1c-4.1,0.7-8.1,1.4-12.1,2s-7.9,1.3-11.7,2
								c-1.9,0.3-3.8,0.6-5.7,1l-1.4,0.2c-0.5,0.1-0.9,0.1-1.3,0.3c-0.8,0.3-1.4,1.1-1.6,2c-1.9,15.2-3.5,29-4.9,40.6l0,0.1h-0.1
								c-11.9-0.1-21.4-0.2-28.1-0.2c-1.6,0-3.1,0-4.4,0c-0.6,0.1-1.1,0.5-1.4,0.9c-0.3,0.5-0.3,1-0.2,1.4c0.2,0.9,0.8,1.3,1.2,1.5
								C146.1,529.8,146.4,529.8,146.4,529.8z"/>
						</g>
					</g>
				</g>
				<g>
					<g>
						<path class="st1" d="M187.2,484.2c0.1,0-1.1,10.5-2.6,23.5s-2.9,23.5-3,23.5s1.1-10.5,2.6-23.5
							C185.8,494.7,187.1,484.2,187.2,484.2z"/>
					</g>
				</g>
			</g>
			<g>
				<path class="st4" d="M206.2,500.6c-0.9,1.9-0.4,4.1,1.1,4.8c1.5,0.7,3.4-0.2,4.3-2.1c0.9-1.9,0.4-4.1-1.1-4.8
					C209,497.8,207.1,498.7,206.2,500.6z"/>
			</g>
		</g>
	</g>
</g>
<g>
	<g>
		<g>
			<path class="st1" d="M593.8,498.6c0,0,0,0.1-0.1,0.3c-0.1,0.2-0.2,0.5-0.3,0.9c-0.3,0.8-0.6,2-1.1,3.4c-1,3-2.5,7.3-4.5,12.5
				c-4,10.5-10,24.9-18.5,39.8c-2,3.8-3.9,7.5-5.3,11.3c-1.4,3.8-2.3,7.6-2.8,11.3c-1,7.4-0.6,14.2,0,19.8
				c0.6,5.6,1.4,10.1,1.9,13.2c0.3,1.5,0.5,2.7,0.6,3.6c0.1,0.4,0.1,0.7,0.2,0.9c0,0.2,0,0.3,0,0.3c0,0,0-0.1-0.1-0.3
				c0-0.2-0.1-0.5-0.2-0.9c-0.2-0.8-0.4-2-0.7-3.6c-0.5-3.1-1.4-7.6-2-13.2c-0.6-5.6-1-12.4,0-19.8c0.5-3.7,1.4-7.6,2.8-11.4
				c1.4-3.8,3.3-7.6,5.3-11.3c8.5-14.9,14.5-29.2,18.6-39.7c2-5.2,3.6-9.5,4.7-12.5c0.5-1.5,0.9-2.6,1.2-3.4
				c0.1-0.4,0.2-0.7,0.3-0.9C593.7,498.8,593.7,498.6,593.8,498.6z"/>
		</g>
	</g>
	<g>
		<g>
			<path class="st1" d="M586,548.3c0,0-0.1,0.2-0.3,0.5c-0.2,0.3-0.5,0.8-0.8,1.3c-0.7,1.2-1.8,2.8-3,4.8c-2.6,4.1-6.3,9.7-10,16
				c-1.8,3.2-3.5,6.3-4.9,9.2c-1.4,2.9-2.5,5.6-3.3,7.8c-0.8,2.3-1.5,4.1-1.9,5.4c-0.2,0.6-0.4,1.1-0.5,1.5
				c-0.1,0.3-0.2,0.5-0.2,0.5s0-0.2,0.1-0.5c0.1-0.4,0.2-0.9,0.4-1.5c0.4-1.3,1-3.2,1.8-5.5c0.8-2.3,1.9-5,3.3-7.9
				c1.4-2.9,3-6,4.8-9.2c3.7-6.4,7.5-11.9,10.1-16c1.3-2,2.4-3.6,3.2-4.8c0.4-0.5,0.7-1,0.9-1.3C585.9,548.5,586,548.3,586,548.3z"
				/>
		</g>
	</g>
	<g>
		<path class="st3" d="M593.7,498.6c0.2-2-1.9-4-3.8-4.8s-3.9-0.5-5.8,0c-11.1,2.5-20.3,12.5-22.3,24.1c5.1-2.6,10.4-5,15.8-6.9
			c-0.3,0.1-0.6,0.2-0.9,0.3c5.2-1,9.9-4.6,12.5-9.4c0.5-0.9,0.9-1.9,1.7-2.6C591.6,498.5,592.8,498.1,593.7,498.6"/>
	</g>
	<g>
		<path class="st3" d="M593.7,498.6c5.1-3.6,11.5-5.2,17.5-4.1c6,1.1,11.6,5,14.5,10.6c2.9,5.6,3.1,12.7,0.1,18.3
			c-2.8-6.1-5.9-12.4-11.1-16.4c-1.2-0.9-2.6-1.8-3.3-3.2c-0.8-1.6-0.5-3.7-1.2-5.4c-0.8-2.1-3.2-2.7-5.4-2.8
			C602.7,495.5,596.3,497.6,593.7,498.6"/>
	</g>
	<g>
		<path class="st3" d="M593.5,498.5c5.2-1.6,11.2,1,14.7,5.1s5.4,9.5,6,15c0.6,5.5,0.1,11-0.4,16.4c-4.1-6.3-7.2-13.3-9-20.7
			c-0.8-3.3-1.5-6.8-3-9.8C600.3,501.4,596.8,499,593.5,498.5"/>
	</g>
	<g>
		<path class="st3" d="M593.4,498.6c4.2-2,6.5-6.5,7.1-11.3c0.5-4.7-1.5-9.7-5.1-12.7c-4.2,3.9-5.8,10.5-3.9,16
			C592.4,493.3,594,496,593.4,498.6"/>
	</g>
	<g>
		<g>
			<path class="st1" d="M559.9,586.5c0,0-0.1-0.2-0.3-0.7c-0.2-0.4-0.4-1.1-0.7-1.9c-0.6-1.6-1.6-4-2.9-6.8
				c-2.6-5.7-6.7-13.2-11.8-21.2c-5.1-8-10.3-14.8-14.3-19.4c-2-2.3-3.8-4.1-5.1-5.2c-0.7-0.5-1.2-0.9-1.6-1.2
				c-0.4-0.2-0.6-0.3-0.6-0.3c0,0,0.2,0.1,0.6,0.3c0.4,0.2,1,0.6,1.7,1.1c1.4,1,3.2,2.8,5.2,5.1c4.2,4.6,9.3,11.4,14.5,19.4
				c5.1,8,9.2,15.6,11.7,21.3c1.3,2.8,2.2,5.2,2.8,6.9c0.3,0.8,0.5,1.5,0.6,1.9C559.9,586.3,559.9,586.5,559.9,586.5z"/>
		</g>
	</g>
	<g>
		<polygon class="st7" points="575,636 546.4,636 541.9,601.8 580.3,601.8 		"/>
	</g>
	<g>
		<g>
			<path class="st3" d="M601.8,560.6c-2.9-6.4-10.3-10.6-17.1-10c1.5,0.6,2.5,2.3,2.8,3.9c0.4,1.7,0.3,3.4,0.4,5
				c0.6,8.1,5.7,15,10.5,21.4c3.4,4.5,6.8,9,10.9,12.9C608.8,582.3,608.1,570.1,601.8,560.6z"/>
		</g>
		<g>
			<path class="st3" d="M584.7,550.7c4.3-3.5,9.9-4.9,15.4-4.9s10.8,1.2,16.2,2.5c3.2,0.8,6.4,1.8,9.1,3.7c2.7,1.9,4.9,5,4.9,8.4
				c-4.5-5.1-11.7-6.1-18.1-8c-4.3-1.3-8.5-3.2-13-4.1C594.7,547.2,588.6,548.3,584.7,550.7"/>
		</g>
		<g>
			<path class="st3" d="M585.4,549.7c-1.9-2.1-0.8-6.9,0.8-9.2c1.7-2.3,4.3-3.5,6.9-4.5c3.4-1.3,7-2.1,10.5-2.5
				c-0.4,2.3-1.7,4.4-3.3,6.1c-1.7,1.7-3.6,2.9-5.5,4.2C591.6,545.8,588.5,547.8,585.4,549.7"/>
		</g>
		<g>
			<path class="st3" d="M567.6,547c-5.4,2.5-9.6,7-13.7,11.5c6-1.5,11.8-4,17-7.3c2.1-1.3,4.2-2.8,6.6-3.4c2.4-0.5,5.1,0.5,7.1,2.3
				C581.3,544.9,573,544.5,567.6,547z"/>
		</g>
		<g>
			<path class="st3" d="M565,583.7c3-7.2,1.8-15.9,5.6-22.7c3-5.2,8.4-8.3,13.8-10.5c1.3,3.9,0.7,8.3-0.9,12s-4.1,7-6.8,10.1
				c-3.7,4.2-7.7,8.1-11.7,12"/>
		</g>
	</g>
	<g>
		<rect x="539.3" y="601.8" class="st7" width="42.8" height="7.7"/>
	</g>
	<g>
		<g>
			<path class="st1" d="M580.6,609.7c0,0.1-9.2,0.2-20.7,0.2s-20.7-0.1-20.7-0.2s9.2-0.2,20.7-0.2
				C571.4,609.5,580.6,609.6,580.6,609.7z"/>
		</g>
	</g>
	<g>
		<path class="st3" d="M595.6,499c-1.5-2.7-3-5.4-5-7.7c-2-2.4-4.4-4.3-7.3-5.2c-3.8-1.2-8-0.2-11.8,0.9c-4.5,1.4-8.9,3.1-13.1,5.2
			c5.5,2.2,11.8,2.3,17.5,0.3c2.9-1,5.8-0.9,8.9-0.5C588.5,492.4,593.2,496,595.6,499"/>
	</g>
	<g>
		<g>
			<path class="st3" d="M493.5,544.6c-6.7,8.9-9,20.7-8.2,32c4-14.9,12.4-28.5,23.9-38.5c4.4-3.8,10-6.8,15.5-6.8
				C513.4,530.4,500.4,535.5,493.5,544.6z"/>
		</g>
		<g>
			<path class="st3" d="M509.1,526.8c-3.8,0.3-7.2,2.3-10.3,4.5c-4.8,3.4-9.2,7.7-11.3,13.2c8.3-10.3,21.8-15.8,34.7-14.2
				C518.1,528.2,513.7,526.5,509.1,526.8z"/>
		</g>
		<g>
			<path class="st3" d="M519.7,513.5c-2.2,1.6-3.8,4.1-3.7,6.9c0.1,1.9,1,3.6,2.2,5.1s3.1,3.4,4.5,4.5c1.4-6.3,3-12.9,4.4-19.3
				C524.5,511.2,521.8,511.9,519.7,513.5z"/>
		</g>
		<g>
			<path class="st3" d="M532.4,512.9c-2.9,2-5.6,4.6-7,7.9s-2,7.5-0.2,10.6c5.1-7.9,10.8-15.8,16.7-23.1
				C538.6,509.6,535.3,510.9,532.4,512.9z"/>
		</g>
		<g>
			<path class="st3" d="M543.2,523.7c-6.7-0.6-13.7,2.6-17.8,8.1c2.8-1.5,6.5-2.3,9.6-1.9c8.3,1.1,16.5,2.7,24.6,4.7
				C556.3,528.5,549.9,524.3,543.2,523.7z"/>
		</g>
		<g>
			<path class="st3" d="M526.1,531.3c-6.3,0.4-11.9,5.4-14.1,11.6c-2.2,6.2-1.5,13.2,0.9,19.3c2.4,6.1,6.3,11.4,10.5,16.4
				c2.1-7.4,4.2-14.9,5.1-22.5C529.4,548.3,528.7,538.5,526.1,531.3z"/>
		</g>
	</g>
	<g class="st12">
		<g>
			<path d="M493.5,544.6c-6.7,8.9-9,20.7-8.2,32c4-14.9,12.4-28.5,23.9-38.5c4.4-3.8,10-6.8,15.5-6.8
				C513.4,530.4,500.4,535.5,493.5,544.6z"/>
		</g>
		<g>
			<path d="M509.1,526.8c-3.8,0.3-7.2,2.3-10.3,4.5c-4.8,3.4-9.2,7.7-11.3,13.2c8.3-10.3,21.8-15.8,34.7-14.2
				C518.1,528.2,513.7,526.5,509.1,526.8z"/>
		</g>
		<g>
			<path d="M519.7,513.5c-2.2,1.6-3.8,4.1-3.7,6.9c0.1,1.9,1,3.6,2.2,5.1s3.1,3.4,4.5,4.5c1.4-6.3,3-12.9,4.4-19.3
				C524.5,511.2,521.8,511.9,519.7,513.5z"/>
		</g>
		<g>
			<path d="M532.4,512.9c-2.9,2-5.6,4.6-7,7.9s-2,7.5-0.2,10.6c5.1-7.9,10.8-15.8,16.7-23.1C538.6,509.6,535.3,510.9,532.4,512.9z"
				/>
		</g>
		<g>
			<path d="M543.2,523.7c-6.7-0.6-13.7,2.6-17.8,8.1c2.8-1.5,6.5-2.3,9.6-1.9c8.3,1.1,16.5,2.7,24.6,4.7
				C556.3,528.5,549.9,524.3,543.2,523.7z"/>
		</g>
		<g>
			<path d="M526.1,531.3c-6.3,0.4-11.9,5.4-14.1,11.6c-2.2,6.2-1.5,13.2,0.9,19.3c2.4,6.1,6.3,11.4,10.5,16.4
				c2.1-7.4,4.2-14.9,5.1-22.5C529.4,548.3,528.7,538.5,526.1,531.3z"/>
		</g>
	</g>
	<g class="st14">
		<g>
			<path d="M601.8,560.6c-2.9-6.4-10.3-10.6-17.1-10c1.5,0.6,2.5,2.3,2.8,3.9c0.4,1.7,0.3,3.4,0.4,5c0.6,8.1,5.7,15,10.5,21.4
				c3.4,4.5,6.8,9,10.9,12.9C608.8,582.3,608.1,570.1,601.8,560.6z"/>
		</g>
		<g>
			<path d="M584.7,550.7c4.3-3.5,9.9-4.9,15.4-4.9s10.8,1.2,16.2,2.5c3.2,0.8,6.4,1.8,9.1,3.7c2.7,1.9,4.9,5,4.9,8.4
				c-4.5-5.1-11.7-6.1-18.1-8c-4.3-1.3-8.5-3.2-13-4.1C594.7,547.2,588.6,548.3,584.7,550.7"/>
		</g>
		<g>
			<path d="M585.4,549.7c-1.9-2.1-0.8-6.9,0.8-9.2c1.7-2.3,4.3-3.5,6.9-4.5c3.4-1.3,7-2.1,10.5-2.5c-0.4,2.3-1.7,4.4-3.3,6.1
				c-1.7,1.7-3.6,2.9-5.5,4.2C591.6,545.8,588.5,547.8,585.4,549.7"/>
		</g>
		<g>
			<path d="M567.6,547c-5.4,2.5-9.6,7-13.7,11.5c6-1.5,11.8-4,17-7.3c2.1-1.3,4.2-2.8,6.6-3.4c2.4-0.5,5.1,0.5,7.1,2.3
				C581.3,544.9,573,544.5,567.6,547z"/>
		</g>
		<g>
			<path d="M565,583.7c3-7.2,1.8-15.9,5.6-22.7c3-5.2,8.4-8.3,13.8-10.5c1.3,3.9,0.7,8.3-0.9,12s-4.1,7-6.8,10.1
				c-3.7,4.2-7.7,8.1-11.7,12"/>
		</g>
	</g>
</g>
<g>
	<g>
		<path class="st7" d="M515.8,215.9h-36.6c-6.2,0-11.3,5.2-11.3,11.7v33c0,6.4,5,11.7,11.3,11.7h10.7l-2.6,10.4l10.2-10.4h18.3
			c6.2,0,11.3-5.2,11.3-11.7v-33C527.1,221.1,522.1,215.9,515.8,215.9z"/>
		<path class="st15" d="M515.8,215.9h-36.6c-6.2,0-11.3,5.2-11.3,11.7v33c0,6.4,5,11.7,11.3,11.7h10.7l-2.6,10.4l10.2-10.4h18.3
			c6.2,0,11.3-5.2,11.3-11.7v-33C527.1,221.1,522.1,215.9,515.8,215.9z"/>
	</g>
	<g>
		<g class="st16">
			<ellipse class="st7" cx="497.5" cy="243.9" rx="18.2" ry="18.8"/>
		</g>
		<g>
			<path class="st4" d="M495.6,252.3c-0.5,0-1-0.2-1.3-0.6l-7.1-8.7c-0.6-0.7-0.5-1.8,0.2-2.4s1.8-0.5,2.4,0.2l5.9,7.1l9.7-11.8
				c0.6-0.7,1.6-0.8,2.4-0.2c0.7,0.6,0.8,1.7,0.2,2.4l-10.9,13.3C496.6,252.1,496.1,252.3,495.6,252.3z"/>
		</g>
	</g>
</g>
<g>
	<g>
		<path class="st1" d="M413.5,342.4c0.1,0.7-0.4,1.2-1,1.2h-11.6c-0.6,0-1.2-0.5-1.3-1.2l-2.6-23.8c-0.1-0.7,0.4-1.4,1-1.4h11.6
			c0.6,0,1.2,0.7,1.3,1.4L413.5,342.4z"/>
		<path class="st17" d="M409.6,318.5l2.6,24c0.1,0.7-0.3,1.1-0.9,1.1h-9.9c-0.7,0-1.9-0.4-2-1l-2.6-24.1c-0.1-0.7,1.1-1.2,1.7-1.2
			h9.9C409.1,317.2,409.5,317.8,409.6,318.5z"/>
	</g>
	<path class="st7" d="M418.7,339.9c-2.6,5.1-5.5,10.6-8.4,15.5c-2.7,4.3-5.5,8.9-9.2,12c-0.4,0.3-0.7,0.4-0.2,0.4
		c1.1-0.1,2.7,0.6,3.2,1.5c-1.4-1.7-2-5.4-2.6-7.9c-1.2-5.7-2-11.9-2.8-17.9c-0.5-4.5-6.8-4.7-7.6-0.2c-1.8,11.2-5.2,42.6,13.5,38.3
		c12.3-3.9,22.4-23.4,27.9-34.8C436.3,337.2,423.4,330.8,418.7,339.9L418.7,339.9z"/>
	<path class="st18" d="M400,326.3l-3.2,0.9c-1.2,0.3-2.2,1.2-2.6,2.4l-2.1,5.6c-0.8,2.3-0.6,4.8,0.7,6.8l0.8,1.2
		c5.4-1,10.6-6.3,10.6-6.3l1.6-1.3c1.5-1.2,1.7-3.2,0.6-4.7l-2.5-3.4C403,326.4,401.4,325.9,400,326.3z"/>
	<g>
		<path class="st19" d="M399.2,346.4c0,0-5.9-0.5-8.6-2.1l0.8-5.1l8.5,1.9L399.2,346.4z"/>
		<path class="st7" d="M399.2,346.4c0,0-5.9-0.5-8.6-2.1l0.8-5.1l8.5,1.9L399.2,346.4z"/>
		<path class="st20" d="M399.2,346.4c0,0-5.9-0.5-8.6-2.1l0.8-5.1l8.5,1.9L399.2,346.4z"/>
	</g>
	<path class="st21" d="M411.2,377.9c0.7-0.6,1.4-1.2,2-1.8c1.4-1.3,2.6-2.6,3.7-4c2.3-2.7,4.2-5.4,6-8.2c0.1-0.2,0.3-0.4,0.4-0.6
		c-2.2-3.6-4.4-6.1-4.4-6.1S412.5,365.7,411.2,377.9z"/>
	<path class="st7" d="M417.8,405h43.1c-0.1-5.1-0.1-10.1,0.1-14.8c0.2-5.8,0.5-11.3,1-16.5c0.5-5.1,1-9.9,1.6-14.1
		c0.1-1.1,0.3-2.1,0.5-3.2c1.9-12.1,3.8-19.5,3.8-19.5c-23.5-11.8-45.6-1-45.6-1C411,352.8,417.8,405,417.8,405z"/>
	<path class="st21" d="M427.4,357.4c0,0,12,48.5,33.6,32.8c0.2-5.8,0.5-11.3,1-16.5c0.5-5.1,1-9.9,1.6-14.1c0.1-1.1,0.3-2.1,0.5-3.2
		c-3.2-4.2-6.4-6.8-6.4-6.8s-5.9,11.4-8.9,20.7c0,0-13.8-18.9-16.4-19.3C429.9,350.6,427.4,357.4,427.4,357.4z"/>
	<path class="st18" d="M398.4,515.1c0.6,0.7,1.1,1.4,1.7,2.1c3.1,4.6,6.8,10,10.9,15.8c4.8,6.8,10,14.2,15.3,21.8
		c1.8,2.6,3.7,5.2,5.5,7.8c5.5,7.7,10.8,15.4,15.6,22.4v0c1.2,1.8,2.4,3.6,3.6,5.3c8.5,12.6,14.7,22.3,15.4,25.5
		c1.2,1.3,6.3-2.4,6.9-4.3c0,0-5.6-20.5-17.3-46.1c-0.8-1.8-1.7-3.6-2.5-5.5c-5.6-11.8-12.5-24.3-20.6-36.3c-1-1.5-2.1-3.1-3.2-4.6
		c-3.8-5.3-7.8-10.4-12.1-15.3c1.8-2.8,3.5-5.5,5.1-8.2c0.8-1.4,1.6-2.7,2.4-4h0c2.5-4.4,4.9-8.6,7.1-12.7c0.5-1,1-1.9,1.5-2.8
		c6.4-12.2,11.1-23,14.6-32.1c0.2-0.5,0.4-1.1,0.6-1.6c7-18.7,8.7-29.6,8.7-29.6l-26.3-5.5l-2.5-0.5l-7.8-1.6c0,0-4.5,14-10,32.6
		c-0.5,1.6-0.9,3.3-1.4,5c-2,7-4.1,14.6-6,22.2c-1.7,6.5-3.3,13.1-4.7,19.4c-0.1,0.4-0.2,0.8-0.3,1.2c-1.2,5.3-2.2,10.4-3,15.1
		l0,0.1C394,505.6,395.1,511,398.4,515.1z"/>
	<path class="st21" d="M426.2,554.7c1.8,2.6,3.7,5.2,5.5,7.8c5.5,7.7,10.8,15.4,15.6,22.4v0c1.2,1.8,2.4,3.6,3.6,5.3
		c1.5-6.5,3.4-15.3,5-25c-0.8-1.8-1.7-3.6-2.5-5.5c-5.6-11.8-12.5-24.3-20.6-36.3c-1-1.5-2.1-3.1-3.2-4.6
		C429.1,527.3,428.1,541.1,426.2,554.7z"/>
	<g>
		<path class="st1" d="M479.7,622.5l-1.6,1l-1.6-1.7l-3.8,5.6l-13.1,8.1c0,0-3.3-0.9,1.9-6.5c0.2-0.3,0.5-0.5,0.7-0.9
			c2.4-3.7,4-12.1,4-12.1l7.2-4.5c0,0,0.5,0.2,1.2,0.7C476.4,613.4,479.7,616,479.7,622.5z"/>
		<path class="st18" d="M474.6,612.3C474.7,612.3,474.7,612.3,474.6,612.3c-1.6-0.5-3.1,7-5.3,10.6c-2,3.2-4.8,5.8-7.1,5.2
			c2.4-3.7,3.5-14,3.5-14l5.8-3.6C471.6,610.5,473.9,611.8,474.6,612.3z"/>
	</g>
	<path class="st18" d="M425.1,625c1.7,1.5,5.1,2.4,9.1,1.9c0,0,7-17.4,13.2-40v0c2.2-7.9,4.3-16.5,6-25.1c3.4-17.4,5.1-35.2,2.3-49
		c1.5-5.7,2.9-11,4.1-16.1c0.3-1.2,0.6-2.5,0.8-3.7h0c4-17.9,5.7-32.4,6.2-43.9c0,0,0-0.1,0-0.2c1.2-30-6.2-40.4-6.2-40.4l-32.3-6.6
		c0,0,0.1,1.5,0.2,4.1c0,0.7,0.1,1.6,0.1,2.5c0.4,6.4,0.9,17,1.5,29.3c0.1,1.6,0.2,3.3,0.2,5c0.5,10.3,1,21.4,1.4,32
		c0.1,2,0.1,3.9,0.2,5.9c0.2,4.8,0.3,9.5,0.4,13.8c0,0.5,0,0.9,0,1.4c0.1,3.8,0.2,7.4,0.2,10.7c0.1,5.8,0.1,12.2,0,18.9
		c-0.1,12.3-0.4,25.9-1,39.1C430.6,589.2,428.5,612.7,425.1,625z"/>
	<path class="st21" d="M463.6,359.6c-0.6,4.2-1.2,9-1.6,14.1c-2-4.1-4.3-13.8-1.2-24.1L463.6,359.6z"/>
	<path class="st18" d="M419.5,339.1l3.3,0c1.2,0,2.4,0.6,3.1,1.7l3.4,5c1.3,2,1.7,4.5,0.9,6.8l-0.5,1.4c-5.5,0.4-11.7-3.5-11.7-3.5
		l-1.9-0.9c-1.7-0.8-2.4-2.7-1.7-4.4l1.6-3.9C416.6,340,418,339.1,419.5,339.1z"/>
	<path class="st7" d="M445.5,328.4c13.5,0,15.2,11.5,15.2,11.5l-6.3-2.8L435.8,350l-4.6-13l-5.7,1.1
		C425.6,338.1,433.8,328.4,445.5,328.4z"/>
	<path class="st20" d="M445.5,328.4c13.5,0,15.2,11.5,15.2,11.5l-6.3-2.8L435.8,350l-4.6-13l-5.7,1.1
		C425.6,338.1,433.8,328.4,445.5,328.4z"/>
	<g>
		<path class="st1" d="M434.1,635h-1.8l-0.5-2.3l-6,2.8h-15.3c0,0-2.4-2.5,4.9-4.5c0.3-0.1,0.7-0.2,1-0.4c3.9-1.9,9.4-8.2,9.4-8.2
			h8.4c0,0,0.3,0.4,0.7,1.2C435.7,625.5,437.3,629.5,434.1,635z"/>
		<path class="st18" d="M434.8,623.5C434.8,623.6,434.8,623.6,434.8,623.5c-1.1-1.2-6.1,4.4-9.8,6.3c-3.3,1.7-7,2.5-8.6,0.7
			c3.9-1.9,10-10.1,10-10.1h6.8C433,620.4,434.4,622.7,434.8,623.5z"/>
	</g>
	<path class="st1" d="M417.4,401.4h43.4l1.2,5.8c0,0,16.5,24.2,4,82.6c0,0-36.2-1.1-69.1-8.4c0,0,12.5-56,20.2-75.1L417.4,401.4z"/>
	<g>
		<polygon class="st7" points="447.9,406.4 462.4,406.4 461.5,402.1 447.9,402.1 		"/>
		<polygon class="st7" points="421.4,402.1 417,402.1 416.6,406.4 421.4,406.4 		"/>
		<rect x="422.8" y="402.1" class="st7" width="23.6" height="4.3"/>
		<polygon class="st20" points="447.9,406.4 462.4,406.4 461.5,402.1 447.9,402.1 		"/>
		<polygon class="st20" points="421.4,402.1 417,402.1 416.6,406.4 421.4,406.4 		"/>
		<rect x="422.8" y="402.1" class="st20" width="23.6" height="4.3"/>
		<path class="st4" d="M435.9,406.7h-6.5c-0.4,0-0.7-0.3-0.7-0.7v-3.5c0-0.4,0.3-0.7,0.7-0.7h6.5c0.4,0,0.7,0.3,0.7,0.7v3.5
			C436.7,406.4,436.3,406.7,435.9,406.7z"/>
	</g>
	<g>
		<path class="st18" d="M433.6,333.5c0,0,2.8,15.6,2.8,15.7l17.4-15.7c-3.2-3.4-2.8-11.4-1.5-18c0,0,0,0,0,0c0.4-2.1,0.8-4,1.2-5.6
			l-13.2,11c0.4,2.4,0.6,4.9-0.1,7C439.5,330.5,437.6,332.5,433.6,333.5z"/>
		<path class="st21" d="M440.3,327.9c8.9-0.4,12-12.4,12-12.4s0,0,0,0c0.4-2.1,0.8-4,1.2-5.6l-13.2,11
			C440.8,323.3,440.9,325.8,440.3,327.9z"/>
	</g>
	<g>
		<path class="st1" d="M425.2,296c0,0-5.1-1.5-3.9-5.1c1.1-3.6,2.9-3.8,2.9-3.8s-3-4.4-1-9.4c2-5,7.6-3.5,7.6-3.5s-0.5-5.4,4.4-6.8
			s7.4,3.2,7.4,3.2s3-4.9,8-4.1c5.1,0.8,6.7,7.8,6.7,7.8s4.4-2.1,7.2,2.8s0,9.1,0,9.1s3-1.8,4.5,3.3s-3.4,10.3-3.4,10.3
			s2.9,0.1,1.8,4.1s-5.8,4.5-5.8,4.5s1.9,0.8-1.3,4.3c-3.1,3.5-14.6,0-14.6,0L425.2,296z"/>
		<path class="st18" d="M438,286.4c-10.5,1.6-13.1,7.9-12.3,19.2c1,14.1,5.4,23.6,18.1,18.7C461,317.5,455.4,283.7,438,286.4z"/>
		<path class="st22" d="M432.4,303.9c0,0-1.1,3.1-2.4,5c0,0,1.1,1.3,2.9,0.8L432.4,303.9z"/>
		<g>
			<path class="st1" d="M438.7,302.1c0.1,0.9,0.7,1.6,1.2,1.5c0.6-0.1,1-0.9,0.9-1.8c-0.1-0.9-0.7-1.6-1.2-1.5
				C439,300.4,438.6,301.2,438.7,302.1z"/>
			<path class="st1" d="M439.8,300.4l-2-0.5C437.8,299.8,438.9,301.3,439.8,300.4z"/>
		</g>
		<g>
			<path class="st1" d="M427.9,303.2c0.1,0.9,0.7,1.6,1.2,1.5c0.6-0.1,1-0.9,0.9-1.8c-0.1-0.9-0.7-1.6-1.2-1.5
				C428.2,301.6,427.8,302.4,427.9,303.2z"/>
			<path class="st1" d="M429,301.5l-2-0.5C427,301,428.2,302.5,429,301.5z"/>
		</g>
		<path class="st1" d="M442.5,296c0.1,0,0.2,0,0.3-0.1c0.2-0.2,0.2-0.5,0-0.7c-2-2-5.1-1.1-5.2-1.1c-0.2,0.1-0.4,0.3-0.3,0.6
			c0.1,0.2,0.3,0.4,0.5,0.3c0,0,2.7-0.7,4.4,0.9C442.3,296,442.4,296,442.5,296z"/>
		<path class="st1" d="M426,297.2c0.1,0,0.2,0,0.3-0.1c1.9-1.8,3.6-1.4,3.7-1.4c0.2,0,0.5-0.1,0.5-0.4s-0.1-0.5-0.4-0.5
			c-0.1,0-2.2-0.5-4.5,1.6c-0.2,0.2-0.2,0.5,0,0.7C425.7,297.2,425.9,297.2,426,297.2z"/>
		<path class="st1" d="M452,303c0,0-6.1-8.2-6.4-15.2c0,0-22-5.7-20,16.3c0,0-4.7-19.1,13.2-22.2c18-3.1,21.7,24.2,13.5,33.8
			C452.4,315.6,455.8,308.1,452,303z"/>
		<path class="st18" d="M450.6,305.5c-0.2-1.8,1.2-5,4.4-5.1c3.3-0.1,5.8,6.6-2,9.4C451.8,310.2,450.9,309.2,450.6,305.5z"/>
		<path class="st1" d="M435.4,315.9c1,0,4.8-0.3,6-4.3c0.1-0.2-0.1-0.5-0.3-0.6c-0.2-0.1-0.5,0.1-0.6,0.3c-1.1,3.9-5.2,3.6-5.3,3.6
			c-0.2,0-0.5,0.2-0.5,0.4c0,0.3,0.2,0.5,0.4,0.5C435.1,315.9,435.2,315.9,435.4,315.9z"/>
		<path class="st7" d="M455.5,298.6c-3.7-13.3-24.1-22.9-30-6.4c0,0,1-6,5.9-10.6c0,0,19.1-7.7,24.6,15.2L455.5,298.6z"/>
	</g>
	<path class="st7" d="M458.2,345.2c-3.1,10.4-5.5,21.7-10.2,31.4c0.3-0.2,1.1-0.8,1.9-1c0.2-0.1,0.6-0.1,0.8-0.1
		c0.4,0,0.7,0,0.9,0.1c0.4,0.1,0.3,0.2,0,0.1c-2.8-1.7-5.3-5.2-7.5-8.2c-3.5-4.8-6.8-10.1-10.1-15.3c-2.4-3.8-8.1-1-6.8,3.3
		c3.3,10.5,12.4,37.4,26.5,33.9c5.5-1.8,7.8-7.4,10.1-12.1c4-9.1,6.8-18.4,9.2-28C475.1,339.1,461.2,335.4,458.2,345.2L458.2,345.2z
		"/>
	<g>
		<path class="st19" d="M431,347.7c0,0-4.9,3.6-6.4,6.4l3.2,4l6.3-6.1L431,347.7z"/>
		<path class="st7" d="M431,347.7c0,0-4.9,3.6-6.4,6.4l3.2,4l6.3-6.1L431,347.7z"/>
		<path class="st20" d="M431.5,347.7c0,0-5,3.4-6.6,6.2l3.1,4.1l6.5-5.9L431.5,347.7z"/>
	</g>
	<path class="st7" d="M467.8,337c4.3,2.7,7.5,5.2,5,12.7c-3,8.8-16.3,3.2-16.3,3.2s0.1-7,2.8-10.5S467.8,337,467.8,337z"/>
</g>
</svg>
