<?xml version="1.0" encoding="utf-8"?>
<!-- Generator: Adobe Illustrator 26.1.0, SVG Export Plug-In . SVG Version: 6.00 Build 0)  -->
<svg version="1.1" id="Layer_1" xmlns="http://www.w3.org/2000/svg" xmlns:xlink="http://www.w3.org/1999/xlink" x="0px" y="0px"
	 viewBox="0 0 2426.5 1530.8" style="enable-background:new 0 0 2426.5 1530.8;" xml:space="preserve">
<style type="text/css">
	.st0{fill-rule:evenodd;clip-rule:evenodd;fill:#FFFFFF;}
	.st1{fill-rule:evenodd;clip-rule:evenodd;fill:#315881;}
	.st2{fill-rule:evenodd;clip-rule:evenodd;fill:#DFA43B;}
	.st3{fill:#315881;}
	.st4{fill:#DFA43B;}
</style>
<g>
	<path class="st0" d="M158.6,0h2109.2c87.6,0,158.6,71,158.6,158.6v1213.5c0,87.6-71,158.6-158.6,158.6H158.6
		C71,1530.8,0,1459.7,0,1372.1V158.6C0,71,71,0,158.6,0z"/>
	<path class="st1" d="M2426.5,174.4C2426.5,57.8,2365.9,0,2248.4,0H178C119.3,0,76.2,15.6,47.7,47.7C15.6,79.8,0,121.1,0,174.4v1182
		c0,53.2,15.6,93.6,47.7,126.6c33,32.1,75.3,47.7,130.3,47.7h2070.4c117.5,0,178.1-58.7,178.1-174.4V174.4z M2248.4,27.5
		c97.3,0,146.8,49.6,146.8,146.8v1182c0,98.2-49.6,146.8-146.8,146.8H178c-46.8,0-82.6-13.8-109.2-41.3
		c-27.5-26.6-41.3-63.3-41.3-105.5v-1182C27.5,77.1,76.2,27.5,178,27.5H2248.4z"/>
	<path class="st1" d="M194.6,95.4c-39.5,0-64.2,6.4-78,20.2c-11.9,15.6-17.4,41.3-17.4,78.9v256h2228.2v-256
		c0-67-33.1-99.1-99.1-99.1H194.6z"/>
	<path class="st2" d="M99.1,1332.5c0,67.9,32.1,102.8,95.4,102.8h2033.7c66.1,0,99.1-34.9,99.1-102.8v-256H99.1V1332.5z"/>
	<g>
		<path class="st3" d="M350.6,740.4V529.2c0-5.5,1-10.2,3.1-14.1c2-3.8,4.6-7.1,7.8-9.7c3.1-2.6,6.6-4.6,10.3-5.8
			c3.7-1.2,7.2-1.8,10.3-1.8h88.8c12.3,0,23.8,1.1,34.7,3.4c10.8,2.3,20.3,6.2,28.5,11.7c8.2,5.5,14.7,12.9,19.5,22.2
			c4.8,9.3,7.2,20.8,7.2,34.5c0,10.4-2.6,19.7-7.8,28.2c-5.2,8.4-12.3,15.2-21.5,20.2c10.8,4.3,19.3,11.7,25.5,22.2
			c6.1,10.5,9.2,21.4,9.2,32.7c0,14-2.5,25.8-7.4,35.4c-4.9,9.6-11.6,17.5-20,23.6c-8.4,6.1-18.2,10.6-29.4,13.4
			c-11.2,2.8-23,4.2-35.6,4.2H359.6c-2.4,0-4.5-0.9-6.3-2.7C351.5,744.9,350.6,742.8,350.6,740.4z M463.2,597.5
			c8.2,0,14.8-2.2,19.9-6.7c5.1-4.5,7.6-10.9,7.6-19.3c0-8.4-2.6-14.7-7.8-19c-5.2-4.2-11.7-6.3-19.7-6.3h-65c5.5,0,10.2,2,14.1,6
			c3.8,4,5.8,8.4,5.8,13.2V587c0,2.2,1,4.5,2.9,6.9c1.9,2.4,4.6,3.6,7.9,3.6H463.2z M466.5,700.7c8.7,0,15.7-2.4,21.1-7.2
			c5.4-4.8,8.1-11.7,8.1-20.6c0-8.7-2.8-15.6-8.3-20.8c-5.5-5.2-12.5-7.8-20.9-7.8h-68.2c5.5,0,10.2,2,14.1,6
			c3.8,4,5.8,8.4,5.8,13.2v26.4c0,2.4,0.9,4.8,2.7,7.2c1.8,2.4,4.5,3.6,8.1,3.6H466.5z"/>
		<path class="st3" d="M586.3,748.4c-1.4-1.9-2.2-3.7-2.2-5.4c0-1.7,0.1-2.8,0.4-3.2l83.8-230.3c2.6-7,7.5-10.5,14.4-10.5h56
			c7,0,11.8,3.5,14.4,10.5l83.8,230.3c0.2,0.5,0.4,1.6,0.4,3.2c0,1.9-0.8,3.7-2.3,5.2c-1.6,1.6-3.3,2.3-5.2,2.3h-46.6
			c-6,0-10.1-2.6-12.3-7.9L752,691.7c-8.7,3.4-17.5,6.1-26.4,8.3c-8.9,2.2-17.5,3.8-25.8,4.9c-8.3,1.1-16.1,1.8-23.3,2.2
			c-7.2,0.4-13.5,0.5-18.8,0.5c-3.4,0-6.3,0-8.7,0c-2.4,0-4.2-0.1-5.4-0.4c4.6,0.5,8.2,2.8,11,7c2.8,4.2,3.1,9.1,0.9,14.6l-5.1,13.7
			c-2.2,5.3-6.3,7.9-12.3,7.9h-46.6C590,750.5,588.2,749.8,586.3,748.4z M678,655.9c6.7-0.5,13.7-1.3,20.9-2.5
			c6.3-1,12.8-2.3,19.7-4.2c6.9-1.8,13.4-4.4,19.7-7.8l-27.8-79.4L678,655.9z"/>
		<path class="st3" d="M1070.4,674c0,14.7-3.4,27.1-10.1,37.4c-6.7,10.2-15.4,18.4-26,24.5c-10.6,6.1-22.4,10.6-35.4,13.4
			c-13,2.8-25.6,4.2-37.9,4.2c-8.4,0-17.2-0.5-26.4-1.6c-9.1-1.1-18-3.1-26.5-6c-8.5-2.9-16.6-6.7-24.2-11.4s-14-10.6-19.3-17.9
			c-8.7-11.1-13.1-23-13.4-35.7c0-2.2,0.7-4,2.2-5.4c1.9-1.4,3.8-2.2,5.8-2.2h47.7c3.1,0,5.6,0.5,7.4,1.4c1.8,1,3.7,2.7,5.6,5.1
			c4.3,7.7,10.2,12.9,17.5,15.7c7.3,2.8,15.2,4.2,23.6,4.2c3.6,0,7.7-0.3,12.3-0.9c4.6-0.6,8.9-1.7,13-3.2c4.1-1.6,7.6-3.8,10.5-6.7
			c2.9-2.9,4.3-6.7,4.3-11.6c0-6.3-2.5-10.9-7.6-13.9c-5.1-3-10.1-5.4-15.2-7c-3.9-1.2-8.6-2.5-14.3-4c-5.7-1.4-12.2-3-19.7-4.7
			c-11.1-2.2-21.8-4.9-32.1-8.3c-10.4-3.4-19.6-7.9-27.6-13.7c-8.1-5.8-14.6-13.1-19.5-21.8c-4.9-8.8-7.4-19.7-7.4-32.7
			c0-13.7,3.1-25.5,9.2-35.2c6.1-9.7,14-17.7,23.6-23.8c9.6-6.1,20.4-10.6,32.3-13.4c11.9-2.8,23.8-4.2,35.6-4.2
			c8.2,0,16.5,0.7,25.1,2.2c8.5,1.4,16.8,3.7,24.7,6.9c7.9,3.1,15.3,7.1,22.2,11.9c6.9,4.8,12.9,10.6,18.2,17.3
			c8.2,10.8,12.5,21.5,13,32.1c0,1.9-0.7,3.9-2.2,5.8c-1.4,1.4-3.2,2.2-5.4,2.2H1004c-5.3,0-9.4-2.2-12.3-6.5
			c-1-3.4-2.7-6.2-5.1-8.5c-2.4-2.3-5.2-4.1-8.5-5.4c-3.2-1.3-6.6-2.3-9.9-2.9c-3.4-0.6-6.6-0.9-9.7-0.9c-3.6,0-7.3,0.2-11,0.7
			c-3.7,0.5-7.1,1.5-10.1,3.1c-3,1.6-5.5,3.7-7.6,6.5c-2,2.8-3.1,6.3-3.1,10.6c0,7,3.6,12.5,10.8,16.6c7.2,3.9,20.6,7.8,40.1,11.9
			c11.6,1.9,22.9,4.5,34.1,7.6c11.2,3.1,21.1,7.5,29.8,13c8.7,5.5,15.6,12.7,20.9,21.5C1067.8,649,1070.4,660.3,1070.4,674z"/>
		<path class="st3" d="M1106.5,740.8V529.6c0-9.1,3.1-16.7,9.4-22.6c6.3-5.9,13.6-8.8,22-8.8h147.3c2.4,0,4.6,1,6.5,2.9
			c1.9,1.9,2.9,4.1,2.9,6.5v35.7c0,2.7-1,4.7-2.9,6.1c-1.7,1.7-3.9,2.5-6.5,2.5h-133.6c5.8,0,10.5,2,14.3,6.1
			c3.7,4.1,5.6,8.5,5.6,13.4v15.2c0,2.7,1,5.2,2.9,7.6c1.9,2.4,4.7,3.6,8.3,3.6h78.3c6.3,0,9.4,3.1,9.4,9.4v32.5
			c0,6.3-3.1,9.4-9.4,9.4h-109.4c5.5,0,10.2,1.9,14.1,5.8c3.8,3.9,5.8,8.2,5.8,13v17c0,2.7,1,5.2,3.1,7.6c2,2.4,4.7,3.6,8.1,3.6
			h105.4c2.6,0,4.9,0.9,6.7,2.7c1.8,1.8,2.7,4,2.7,6.7v35.4c0,2.7-1,4.8-2.9,6.5c-1.9,1.7-4.1,2.5-6.5,2.5h-172.6
			c-2.7,0-4.8-0.8-6.5-2.5C1107.3,745.6,1106.5,743.4,1106.5,740.8z"/>
		<path class="st3" d="M1525.6,497.8c6.3,0,9.4,3.1,9.4,9.4v40.1c0,2.9-0.8,5.1-2.5,6.5c-1.7,1.7-4,2.5-6.9,2.5h-83.4
			c5.3,0,10,1.9,14.1,5.8c4.1,3.9,6.1,8.2,6.1,13v165.3c0,2.9-0.8,5.1-2.5,6.7c-1.7,1.6-4,2.3-6.9,2.3h-49.8c-2.4,0-4.6-0.8-6.5-2.5
			c-1.9-1.7-2.9-3.8-2.9-6.5V567.5c0-3.4-1.1-6.1-3.4-8.1c-2.3-2-4.8-3.1-7.4-3.1h-52.3c-2.9,0-5.2-0.8-6.9-2.5
			c-1.7-1.4-2.5-3.6-2.5-6.5v-18.4c0-9.4,3.2-16.9,9.7-22.6c6.5-5.7,13.7-8.5,21.7-8.5H1525.6z"/>
		<path class="st3" d="M1547.3,748.4c-1.4-1.9-2.2-3.7-2.2-5.4c0-1.7,0.1-2.8,0.4-3.2l83.8-230.3c2.6-7,7.5-10.5,14.4-10.5h56
			c7,0,11.8,3.5,14.4,10.5l83.8,230.3c0.2,0.5,0.4,1.6,0.4,3.2c0,1.9-0.8,3.7-2.3,5.2c-1.6,1.6-3.3,2.3-5.2,2.3H1744
			c-6,0-10.1-2.6-12.3-7.9l-18.8-50.9c-8.7,3.4-17.5,6.1-26.4,8.3c-8.9,2.2-17.5,3.8-25.8,4.9s-16.1,1.8-23.3,2.2
			c-7.2,0.4-13.5,0.5-18.8,0.5c-3.4,0-6.3,0-8.7,0c-2.4,0-4.2-0.1-5.4-0.4c4.6,0.5,8.2,2.8,11,7c2.8,4.2,3.1,9.1,0.9,14.6l-5.1,13.7
			c-2.2,5.3-6.3,7.9-12.3,7.9h-46.6C1551,750.5,1549.2,749.8,1547.3,748.4z M1639,655.9c6.7-0.5,13.7-1.3,20.9-2.5
			c6.3-1,12.8-2.3,19.7-4.2c6.9-1.8,13.4-4.4,19.7-7.8l-27.8-79.4L1639,655.9z"/>
		<path class="st3" d="M1931.4,754.1c-34.2,0-61.1-8.3-80.9-24.9c-19.7-16.6-30.2-41-31.4-73.3c-0.2-6.7-0.4-17.1-0.4-31
			c0-14,0.1-24.4,0.4-31.4c1-31.8,11.5-56.3,31.6-73.5c20.1-17.2,47-25.8,80.7-25.8c33.4,0,60.2,8.6,80.3,25.8
			c20.1,17.2,30.6,41.7,31.6,73.5c0.5,14,0.7,24.4,0.7,31.4c0,7.2-0.2,17.6-0.7,31c-1.2,32.3-11.6,56.7-31.2,73.3
			C1992.4,745.8,1965.5,754.1,1931.4,754.1z M1931.4,700c12.5,0,22.5-3.8,30-11.4c7.5-7.6,11.4-19.2,11.9-34.8
			c0.5-14,0.7-23.9,0.7-30c0-6-0.2-15.8-0.7-29.2c-0.5-15.6-4.5-27.3-11.9-34.8c-7.5-7.6-17.5-11.4-30-11.4
			c-12.8,0-22.9,3.8-30.3,11.4c-7.5,7.6-11.4,19.2-11.9,34.8c-0.2,6.7-0.4,16.5-0.4,29.2c0,13,0.1,23,0.4,30
			c0.5,15.6,4.5,27.3,11.9,34.8C1908.5,696.2,1918.6,700,1931.4,700z"/>
		<path class="st4" d="M758.1,781v2.2l-38.3,230.3c-1.7,7.7-6.5,11.6-14.4,11.6H669c-4.1,0-7-1-8.7-2.9c-2.2-1.7-3.6-3.7-4.3-6.1
			L622,921.5c-0.2-1-0.8-1.4-1.8-1.4c-1,0-1.6,0.5-1.8,1.4l-33.9,94.6c-0.7,2.2-2.3,4.2-4.7,6.1c-1.7,1.9-4.6,2.9-8.7,2.9H535
			c-7.9,0-12.8-3.8-14.4-11.6l-38.3-230.3c-0.2-3.1,0.4-5.5,1.8-7.2c1.4-1.4,3.2-2.2,5.4-2.2h46.9c7,0,10.8,2.7,11.6,7.9l20.6,128.2
			c0.2,1,0.8,1.4,1.8,1.4c1.2,0,1.8-0.4,1.8-1.1l22.4-71.1c2.2-6.5,6.1-9.7,11.9-9.7h27.1c5.8,0,9.7,3.2,11.9,9.7l22.4,70.8
			c0.5,0.7,1.1,1.1,1.8,1.1c1,0,1.6-0.5,1.8-1.4l20.9-127.8c0.5-3.1,1.7-5.2,3.8-6.3c2-1.1,4.5-1.6,7.4-1.6h46.9
			c1.9,0,3.7,0.7,5.2,2.2C757.4,777.4,758.1,779.1,758.1,781z"/>
		<path class="st4" d="M768.2,1024.4c-1.4-1.9-2.2-3.7-2.2-5.4c0-1.7,0.1-2.8,0.4-3.2l83.8-230.3c2.6-7,7.5-10.5,14.4-10.5h56
			c7,0,11.8,3.5,14.4,10.5l83.8,230.3c0.2,0.5,0.4,1.6,0.4,3.2c0,1.9-0.8,3.7-2.3,5.2c-1.6,1.6-3.3,2.3-5.2,2.3H965
			c-6,0-10.1-2.6-12.3-7.9l-18.8-50.9c-8.7,3.4-17.5,6.1-26.4,8.3c-8.9,2.2-17.5,3.8-25.8,4.9c-8.3,1.1-16.1,1.8-23.3,2.2
			c-7.2,0.4-13.5,0.5-18.8,0.5c-3.4,0-6.3,0-8.7,0c-2.4,0-4.2-0.1-5.4-0.4c4.6,0.5,8.2,2.8,11,7c2.8,4.2,3.1,9.1,0.9,14.6l-5.1,13.7
			c-2.2,5.3-6.3,7.9-12.3,7.9h-46.6C772,1026.5,770.2,1025.8,768.2,1024.4z M859.9,931.9c6.7-0.5,13.7-1.3,20.9-2.5
			c6.3-1,12.8-2.3,19.7-4.2c6.9-1.8,13.4-4.4,19.7-7.8l-27.8-79.4L859.9,931.9z"/>
		<path class="st4" d="M1048.4,1016.4V804.9c0-4.6,0.9-8.8,2.7-12.6c1.8-3.8,4.2-7.1,7-9.7c2.9-2.6,6.3-4.7,10.1-6.3
			c3.8-1.6,7.7-2.3,11.6-2.3h27.8c2.9,0,5.1,0.8,6.5,2.5c1.7,1.7,2.5,3.9,2.5,6.5v175.1c0,1.9,1,4.3,2.9,7c1.9,2.8,4.6,4.2,7.9,4.2
			h97.1c2.4,0,4.6,0.8,6.5,2.5c1.9,1.7,2.9,3.9,2.9,6.5v38.3c0,2.7-1,4.8-2.9,6.5c-1.9,1.7-4.1,2.5-6.5,2.5h-167.1
			c-2.4,0-4.5-0.9-6.3-2.7C1049.3,1020.9,1048.4,1018.8,1048.4,1016.4z"/>
		<path class="st4" d="M1265,1016.4V804.9c0-4.6,0.9-8.8,2.7-12.6c1.8-3.8,4.2-7.1,7-9.7c2.9-2.6,6.3-4.7,10.1-6.3
			c3.8-1.6,7.7-2.3,11.6-2.3h27.8c2.9,0,5.1,0.8,6.5,2.5c1.7,1.7,2.5,3.9,2.5,6.5v175.1c0,1.9,1,4.3,2.9,7c1.9,2.8,4.6,4.2,7.9,4.2
			h97.1c2.4,0,4.6,0.8,6.5,2.5c1.9,1.7,2.9,3.9,2.9,6.5v38.3c0,2.7-1,4.8-2.9,6.5c-1.9,1.7-4.1,2.5-6.5,2.5H1274
			c-2.4,0-4.5-0.9-6.3-2.7C1265.9,1020.9,1265,1018.8,1265,1016.4z"/>
		<path class="st4" d="M1481.2,1016.8V805.6c0-9.1,3.1-16.7,9.4-22.6c6.3-5.9,13.6-8.8,22-8.8h147.3c2.4,0,4.6,1,6.5,2.9
			c1.9,1.9,2.9,4.1,2.9,6.5v35.7c0,2.7-1,4.7-2.9,6.1c-1.7,1.7-3.9,2.5-6.5,2.5h-133.6c5.8,0,10.5,2,14.3,6.1
			c3.7,4.1,5.6,8.5,5.6,13.4v15.2c0,2.7,1,5.2,2.9,7.6c1.9,2.4,4.7,3.6,8.3,3.6h78.3c6.3,0,9.4,3.1,9.4,9.4v32.5
			c0,6.3-3.1,9.4-9.4,9.4h-109.4c5.5,0,10.2,1.9,14.1,5.8c3.8,3.9,5.8,8.2,5.8,13v17c0,2.7,1,5.2,3.1,7.6c2,2.4,4.7,3.6,8.1,3.6
			h105.4c2.6,0,4.9,0.9,6.7,2.7c1.8,1.8,2.7,4,2.7,6.7v35.4c0,2.7-1,4.8-2.9,6.5c-1.9,1.7-4.1,2.5-6.5,2.5h-172.6
			c-2.7,0-4.8-0.8-6.5-2.5C1482.1,1021.6,1481.2,1019.4,1481.2,1016.8z"/>
		<path class="st4" d="M1900.3,773.8c6.3,0,9.4,3.1,9.4,9.4v40.1c0,2.9-0.8,5.1-2.5,6.5c-1.7,1.7-4,2.5-6.9,2.5h-83.4
			c5.3,0,10,1.9,14.1,5.8c4.1,3.9,6.1,8.2,6.1,13v165.3c0,2.9-0.8,5.1-2.5,6.7c-1.7,1.6-4,2.3-6.9,2.3H1778c-2.4,0-4.6-0.8-6.5-2.5
			c-1.9-1.7-2.9-3.8-2.9-6.5V843.5c0-3.4-1.1-6.1-3.4-8.1c-2.3-2-4.8-3.1-7.4-3.1h-52.3c-2.9,0-5.2-0.8-6.9-2.5
			c-1.7-1.4-2.5-3.6-2.5-6.5v-18.4c0-9.4,3.2-16.9,9.7-22.6c6.5-5.7,13.7-8.5,21.7-8.5H1900.3z"/>
	</g>
</g>
</svg>
