<?xml version="1.0" encoding="utf-8"?>
<!-- Generator: Adobe Illustrator 26.1.0, SVG Export Plug-In . SVG Version: 6.00 Build 0)  -->
<svg version="1.1" id="Layer_1" xmlns="http://www.w3.org/2000/svg" xmlns:xlink="http://www.w3.org/1999/xlink" x="0px" y="0px"
	 viewBox="0 0 870.9 511.2" style="enable-background:new 0 0 870.9 511.2;" xml:space="preserve">
<style type="text/css">
	.st0{fill:#FFFFFF;}
	.st1{fill:#EBEBEB;}
	.st2{fill:#263238;}
	.st3{fill:#FED38D;}
	.st4{fill:#FFB43C;}
	.st5{fill:#FBD0C4;}
	.st6{fill:#F29500;}
</style>
<g>
	<g>
		<g>
			<g>
				<g>
					<g>
						<g>
							<g>
								<path class="st0" d="M69.6,122.9c0.7-18,15.5-32.4,33.6-32.4c3.9,0,7.6,0.7,11,1.9c6.9-16.6,23.3-28.2,42.4-28.2
									c2.2,0,4.4,0.2,6.6,0.5c0-0.2,0-0.3,0-0.5c0-35.5,28.8-64.2,64.2-64.2c35.5,0,64.3,28.8,64.3,64.2
									c25.4,0,45.9,20.6,45.9,45.9c0,4.5-0.6,8.8-1.8,12.8C335.8,122.9,69.6,122.9,69.6,122.9z"/>
							</g>
						</g>
					</g>
				</g>
			</g>
		</g>
	</g>
	<g>
		<g>
			<g>
				<g>
					<g>
						<g>
							<path class="st0" d="M609.6,131.5c-0.2-1.2-0.3-3.3-0.3-5c0-25.1,20.3-45.4,45.5-45.4c3.2,0,6.3,0.3,9.2,1
								c9.9-19.5,30.2-33,53.6-33c28.7,0,52.7,20.2,58.7,47.1c0.3,0,0.6-0.1,0.8-0.1c20.6,0,37.6,16.1,40,35.4H609.6z"/>
						</g>
					</g>
				</g>
			</g>
		</g>
	</g>
</g>
<g>
	<g>
		<g>
			<g>
				<path class="st1" d="M870.8,451.7c-0.6-2.2-3-3.2-5.2-3.6c-8.9-1.5-19.1,3.5-23.7,11.3c7.9,3,16.8,2.1,24.5-1.5
					c1.3-0.6,2.5-1.3,3.4-2.4C870.7,454.6,871.2,453.1,870.8,451.7z"/>
			</g>
		</g>
		<g>
			<g>
				<path class="st1" d="M836,454l0.1-0.1c1-4.6-1.2-11.1-3.6-15.2s-6.4-7.2-10.9-8.5c-1.6-0.5-3.7-0.6-4.5,0.8
					c-0.5,0.9-0.4,2-0.1,3.1C819.3,443.2,827,451.1,836,454z"/>
			</g>
		</g>
		<g>
			<g>
				<path class="st1" d="M857.9,475c-1.1-1-2.6-1.5-4.1-1.7c-4.1-0.6-8.3,0.7-11.8,2.9s-7.6,6.9-10.4,9.9c6.2-2.2,12.5-2.2,19.1-2.5
					c1.8-0.1,3.7-0.1,5.4-0.7s3.3-2,3.5-3.9C859.8,477.5,859,476,857.9,475z"/>
			</g>
		</g>
		<g>
			<g>
				<path class="st1" d="M819,456.2c-1.4-0.9-3.2-1.4-4.8-0.8c-1.9,0.7-3.1,2.7-3.2,4.8c-0.1,2,0.8,4,2.1,5.6
					c1.3,1.6,2.9,2.8,4.5,4.1c3.7,2.9,7.5,5.7,11.2,8.6c-0.7-6.1-3-13.4-6.4-18.5C821.5,458.5,820.4,457.2,819,456.2z"/>
			</g>
		</g>
		<g>
			<g>
				<path class="st1" d="M850,440c4.5-5.6,6.5-10,8.6-16c0.4-1.2,0.8-2.4,0.8-3.7c0-1.3-0.4-2.6-1.4-3.4c-1.2-1-3-1-4.4-0.5
					c-1.4,0.6-2.6,1.7-3.6,2.8c-6.1,6.9-8.6,16.9-7.1,26C844.7,444.8,849.1,441.1,850,440z"/>
			</g>
		</g>
	</g>
	<g>
		<g>
			<g>
				<path class="st2" d="M825.3,508.7c0.5-5.1,1.5-10.1,2.5-15.1c1.3-5.9,2.8-11.7,4.6-17.4c1.8-6.1,3.8-12.1,6-18.1
					c2.1-5.7,4.3-11.4,6.7-16.9c2.1-4.8,4.3-9.6,6.8-14.2c0.3-0.5,0.5-1,0.8-1.5c0.3-0.5-0.6-1-0.9-0.4c-2.5,4.5-4.7,9.1-6.8,13.9
					c-2.4,5.5-4.7,11.1-6.7,16.8c-2.2,6-4.2,12-6.1,18.1c-1.8,5.8-3.4,11.7-4.8,17.6c-1.2,5.1-2.2,10.3-2.8,15.6
					c-0.1,0.6-0.1,1.1-0.2,1.7C824.3,509.1,825.3,509.3,825.3,508.7L825.3,508.7z"/>
			</g>
		</g>
	</g>
	<g>
		<g>
			<g>
				<path class="st2" d="M836.8,463.1c5.7-3.8,12-6.7,18.7-8.5c1.7-0.5,3.5-0.9,5.2-1.2c0.6-0.1,0.5-1.1-0.1-1
					c-6.7,1.2-13.1,3.4-19.1,6.6c-1.8,1-3.6,2-5.3,3.2C835.7,462.7,836.3,463.5,836.8,463.1L836.8,463.1z"/>
			</g>
		</g>
	</g>
	<g>
		<g>
			<g>
				<path class="st2" d="M838.5,456.7c-3.4-5.5-7.2-10.9-11.3-16c-0.4-0.5-1.2,0.1-0.8,0.5c4.1,5.1,7.9,10.4,11.3,16
					C838.1,457.8,838.8,457.2,838.5,456.7L838.5,456.7z"/>
			</g>
		</g>
	</g>
	<g>
		<g>
			<g>
				<path class="st2" d="M830.7,481.1c-2.2-5.8-5.5-11.2-9.1-16.3c-0.9-1.3-1.9-2.6-2.8-3.8c-0.4-0.5-1.2,0-0.8,0.5
					c3.7,4.7,7.1,9.8,9.8,15.2c0.8,1.5,1.5,3.1,2.1,4.7C830,482,830.9,481.7,830.7,481.1L830.7,481.1z"/>
			</g>
		</g>
	</g>
	<g>
		<g>
			<g>
				<path class="st2" d="M829,488.9c5.5-4.5,12.1-7.9,19-10c0.6-0.2,0.3-1.1-0.3-0.9c-6.9,2.1-13.6,5.6-19.2,10.1
					C828,488.5,828.5,489.2,829,488.9L829,488.9z"/>
			</g>
		</g>
	</g>
</g>
<g>
	<g>
		<rect x="611.5" y="300.8" class="st3" width="207.6" height="207.6"/>
	</g>
	<g>
		<g>
			<g>
				<path class="st4" d="M711.8,439.8c-12.1,0.8-22.9,10.9-22.3,23.4c0.5,11.6,10.5,21.6,23.6,20.8c12.7-0.8,21.3-11.7,20.7-24.5
					C733.2,446.2,722.9,439,711.8,439.8z"/>
			</g>
		</g>
		<g>
			<g>
				<path class="st4" d="M766.3,381.5c-1.4-29.5-21.9-49.5-52.7-47.5c-24,1.6-44.9,19.8-45.9,41.8l27,8.5c0.2-9.2,7.5-16.7,17-17.4
					c8.9-0.6,15.8,5.1,16.2,13.6c0.4,9.1-7.5,15.8-20.4,16.6c-4,0.3-8.9-0.2-14.4-1.3l1.8,37.9l31.9,0.4l-0.9-11
					C747.2,421.7,767.2,401.5,766.3,381.5z"/>
			</g>
		</g>
	</g>
</g>
<g>
	<g>
		<rect x="71.8" y="300.8" class="st3" width="207.6" height="207.6"/>
	</g>
	<g>
		<g>
			<g>
				<path class="st4" d="M172.2,439.8c-12.1,0.8-22.9,10.9-22.3,23.4c0.6,11.6,10.5,21.6,23.6,20.8c12.7-0.8,21.3-11.7,20.7-24.5
					C193.5,446.2,183.2,439,172.2,439.8z"/>
			</g>
		</g>
		<g>
			<g>
				<path class="st4" d="M226.6,381.5c-1.4-29.5-21.9-49.5-52.7-47.5c-24,1.6-44.9,19.8-45.9,41.8l27.1,8.5
					c0.2-9.2,7.5-16.7,17-17.4c8.9-0.6,15.8,5.1,16.2,13.6c0.4,9.1-7.5,15.8-20.4,16.6c-4,0.3-8.9-0.2-14.4-1.3l1.8,37.9l31.9,0.4
					l-0.9-11C207.5,421.7,227.6,401.5,226.6,381.5z"/>
			</g>
		</g>
	</g>
</g>
<g>
	<g>
		<g>
			<g>
				<path class="st4" d="M3.8,431.2c0.8-2.9,4.1-4.3,7.1-4.8c12.1-2,26,4.8,32.2,15.4c-10.7,4-22.9,2.9-33.2-2
					c-1.7-0.8-3.4-1.8-4.6-3.2C4.1,435,3.3,433,3.8,431.2z"/>
			</g>
		</g>
		<g>
			<g>
				<path class="st4" d="M51.2,434.3l-0.2-0.1c-1.3-6.3,1.6-15.1,4.9-20.6c3.3-5.5,8.7-9.7,14.8-11.6c2.2-0.6,5-0.8,6.2,1.1
					c0.8,1.2,0.5,2.8,0.1,4.2C73.8,419.7,63.3,430.3,51.2,434.3z"/>
			</g>
		</g>
		<g>
			<g>
				<path class="st4" d="M21.4,462.8c1.5-1.3,3.6-2,5.6-2.3c5.5-0.8,11.2,1,16,3.9s10.3,9.4,14.2,13.4c-8.4-3-17-3-25.9-3.4
					c-2.5-0.1-5-0.1-7.4-1c-2.3-0.9-4.5-2.8-4.8-5.2C18.8,466.2,19.9,464.1,21.4,462.8z"/>
			</g>
		</g>
		<g>
			<g>
				<path class="st4" d="M74.2,437.3c1.9-1.3,4.3-1.9,6.5-1.1c2.6,0.9,4.3,3.7,4.4,6.5s-1.1,5.4-2.8,7.6c-1.7,2.1-3.9,3.8-6.1,5.5
					c-5.1,3.9-10.2,7.8-15.2,11.6c0.9-8.2,4.1-18.1,8.7-25C70.9,440.4,72.3,438.6,74.2,437.3z"/>
			</g>
		</g>
		<g>
			<g>
				<path class="st4" d="M32.1,415.3c-6.1-7.6-8.8-13.6-11.6-21.8c-0.6-1.6-1.1-3.3-1.1-5c0-1.7,0.6-3.5,1.9-4.6
					c1.6-1.4,4-1.4,5.9-0.6s3.5,2.3,4.9,3.9c8.2,9.3,11.7,23,9.6,35.2C39.4,421.7,33.3,416.8,32.1,415.3z"/>
			</g>
		</g>
	</g>
	<g>
		<g>
			<g>
				<path class="st2" d="M65.6,508.6c-0.7-6.9-2-13.7-3.5-20.5c-1.8-8-3.9-15.8-6.2-23.7c-2.5-8.3-5.2-16.5-8.1-24.5
					c-2.8-7.7-5.8-15.4-9-23c-2.8-6.6-5.8-13-9.2-19.3c-0.4-0.7-0.7-1.4-1.1-2c-0.4-0.7,0.8-1.3,1.2-0.6c3.4,6.1,6.4,12.4,9.2,18.8
					c3.3,7.5,6.3,15.1,9.1,22.7c3,8.1,5.7,16.3,8.3,24.5c2.4,7.9,4.6,15.9,6.5,23.9c1.6,7,3,14,3.9,21.1c0.1,0.8,0.2,1.5,0.2,2.3
					C66.9,509.2,65.7,509.4,65.6,508.6L65.6,508.6z"/>
			</g>
		</g>
	</g>
	<g>
		<g>
			<g>
				<path class="st2" d="M50.1,446.7c-7.8-5.2-16.3-9.1-25.4-11.5c-2.4-0.6-4.7-1.2-7.1-1.6c-0.8-0.1-0.7-1.4,0.1-1.3
					c9,1.6,17.8,4.7,25.9,9c2.5,1.3,4.9,2.8,7.2,4.4C51.5,446,50.8,447.1,50.1,446.7L50.1,446.7z"/>
			</g>
		</g>
	</g>
	<g>
		<g>
			<g>
				<path class="st2" d="M47.7,438c4.6-7.5,9.8-14.8,15.3-21.7c0.5-0.6,1.6,0.1,1.1,0.7c-5.5,6.9-10.7,14.2-15.3,21.7
					C48.3,439.4,47.2,438.7,47.7,438L47.7,438z"/>
			</g>
		</g>
	</g>
	<g>
		<g>
			<g>
				<path class="st2" d="M58.3,471.1c3-7.9,7.5-15.3,12.4-22.2c1.2-1.8,2.5-3.5,3.8-5.2c0.5-0.7,1.6,0.1,1.1,0.7
					c-5,6.4-9.6,13.3-13.3,20.6c-1,2.1-2,4.2-2.8,6.4C59.3,472.3,58,471.9,58.3,471.1L58.3,471.1z"/>
			</g>
		</g>
	</g>
	<g>
		<g>
			<g>
				<path class="st2" d="M60.6,481.6c-7.5-6.1-16.5-10.7-25.7-13.6c-0.8-0.2-0.4-1.5,0.4-1.2c9.4,2.9,18.4,7.5,26,13.7
					C62,481.1,61.2,482.1,60.6,481.6L60.6,481.6z"/>
			</g>
		</g>
	</g>
</g>
<g>
	<g>
		<g>
			<g>
				<g>
					<g>
						<g>
							<g>
								<g>
									<g>
										<g>
											<path class="st5" d="M370.9,340.4c0,0-31.3-116.5,40.3-138.5c89.9-27.7,96.7,109.8,96.7,109.8L370.9,340.4z"/>
										</g>
									</g>
								</g>
							</g>
						</g>
					</g>
				</g>
			</g>
			<g>
				<path class="st2" d="M397,258.5c1.4-1.3,2.8-2.5,4.1-3.8c0.6-0.6,1.3-1.3,1.9-2c0.6-0.7,1.2-1.4,1.7-2.1c1.1-1.4,2-3,3-4.5
					c0.9-1.5,1.9-3.1,2.9-4.7l0.1-0.1c0.3-0.4,0.8-0.6,1.3-0.3c0.2,0.2,0.4,0.4,0.4,0.7c0.1,2.2-0.4,4.2-1.2,6.1
					c-0.9,1.9-2.1,3.6-3.4,5.1c-1.4,1.5-2.8,3-4.5,4.1c-1.6,1.2-3.4,2.2-5.2,3c-0.5,0.2-1,0-1.2-0.5
					C396.6,259.2,396.7,258.8,397,258.5L397,258.5z"/>
			</g>
			<g>
				<path class="st2" d="M483.3,234.4c-2,0.3-4,0.4-6.1,0.2c-2.1-0.1-4.1-0.7-6-1.4c-1.9-0.8-3.8-1.7-5.5-3c-1.6-1.3-3-2.9-3.9-5
					c-0.2-0.5,0-1,0.5-1.2c0.3-0.1,0.6-0.1,0.8,0.1l0.1,0.1l4.6,2.9c1.5,0.9,3,1.9,4.7,2.6c0.8,0.3,1.7,0.7,2.5,1l1.3,0.4l1.3,0.4
					c0.9,0.3,1.8,0.4,2.7,0.6c0.9,0.2,1.9,0.3,2.8,0.5l0.1,0c0.5,0.1,0.8,0.6,0.7,1.1C483.9,234,483.6,234.3,483.3,234.4z"/>
			</g>
			<g>
				<path class="st2" d="M421.9,264.9c1.4,5,0.4,9.7-2.2,10.4c-2.6,0.7-5.9-2.8-7.3-7.8c-1.4-5-0.4-9.7,2.2-10.4
					C417.2,256.4,420.5,259.9,421.9,264.9z"/>
			</g>
			<g>
				<path class="st2" d="M476.9,249c1.4,5,0.4,9.7-2.2,10.4c-2.6,0.7-5.9-2.8-7.3-7.8c-1.4-5-0.4-9.7,2.2-10.4
					C472.2,240.5,475.5,243.9,476.9,249z"/>
			</g>
			<g>
				<g>
					<g>
						<g>
							<g>
								<g>
									<g>
										<g>
											<g>
												<g>
													<path class="st2" d="M487.3,143.4c0,0,40.9,87.3-99.8,98.3l2.6,30.3c0,0-14-9.1-14.9,4.8c-1,16,13.2,6.7,13.2,6.7
														s-6.7,37.8-18.3,53.3c-2.2-2-69.8-129.1-7.8-132.2c-0.1-3.7,3.2-29,37.1-40.7C450.5,146.2,458.8,187.9,487.3,143.4z"/>
												</g>
											</g>
										</g>
									</g>
								</g>
							</g>
						</g>
					</g>
				</g>
			</g>
		</g>
		<g>
			<g>
				<g>
					<g>
						<path class="st2" d="M493.9,500.7l16-37.2c2-14.5,3.7-30.3,5-43.5c-49.6,3.4-93.5,6.2-129.2,4.4c1.3,12.9,2.1,25,2.1,37.7
							l-7.7,46c0,0,43.6,9.6,36.5-4.6c-10-19.9-28.6-3.4-28.6-3.4l14.1-35.3l4.7-26.5c59.2,2.3,88.8-2.8,88.8-2.8l0,27.6l-9.1,45.3
							c0,0,50.6,10.3,34.3-9.4C508.2,484,493.9,500.7,493.9,500.7z"/>
						<path class="st6" d="M514.9,420c2-40.1,2.3-62.1-7-108.3l-138,25c6.1,26.9,10.1,48.1,15.8,87.8
							C421.4,426.3,461.6,427.8,514.9,420z"/>
					</g>
				</g>
			</g>
		</g>
		<g>
			<path class="st5" d="M370,336.7l5,15.5c-52.5,41.2,22.9,61.4,23.5,61.7c1.9,1.4,2.9,3.4,2,4.6c-0.5,0.8-1.7,1-2.9,0.6
				c0.7,1.1,0.9,2.2,0.4,3c-0.5,0.8-1.7,1-2.9,0.6c0.7,1.1,0.9,2.2,0.4,3c-0.5,0.8-1.7,1-2.9,0.6c0.7,1.1,0.9,2.2,0.4,3
				c-0.8,1.2-3.1,1-5-0.3l0,0C292.4,388.8,370,336.7,370,336.7z"/>
			<g>
				<path class="st6" d="M375,352.1l-5-15.5c0,0-6.8,4.6-14,12.1l10.9,10.5C369.2,357,371.9,354.6,375,352.1z"/>
			</g>
		</g>
		<g>
			<g>
				<g>
					<path class="st5" d="M508,311.7l2.6,16.3c79.4-45.7,26.5-108.8-13.7-118.2c-10.7-2.5-22.2,0.6-21.2,5.6
						c0.7,3.3,9.9-4.2,17.8-1.5c-1.3,0.1-2.3,0.7-2.5,1.6c-0.2,0.9,0.3,1.9,1.4,2.7c-1.3,0.1-2.3,0.7-2.5,1.6s0.3,1.9,1.4,2.7
						c-1.3,0.1-2.3,0.7-2.5,1.6c-0.4,1.4-0.1,2.4,3.5,3.6C555,249,541,293.4,508,311.7z"/>
				</g>
			</g>
			<g>
				<path class="st6" d="M508,311.7l2.6,16.3c4.8-2.8,9.2-5.6,13.1-8.5l-10.2-11.2C511.7,309.5,509.9,310.6,508,311.7z"/>
			</g>
		</g>
	</g>
	<path class="st2" d="M442.5,297.7c0.3-0.6,0.6-1.1,1-1.6c0.3-0.5,0.7-1,1.1-1.5c0.8-0.9,1.6-1.8,2.5-2.6c1.8-1.6,3.9-2.9,6.1-3.9
		c1.1-0.5,2.2-0.9,3.4-1.2c1.2-0.3,2.4-0.5,3.5-0.7c2.4-0.3,4.8-0.2,7.1,0.3c0.4,0.1,0.7,0.5,0.6,1c-0.1,0.4-0.4,0.6-0.8,0.7h0
		c-2.2,0.1-4.5,0.2-6.6,0.7c-0.5,0.1-1.1,0.2-1.6,0.4c-0.5,0.1-1,0.3-1.6,0.5c-0.5,0.1-1,0.3-1.5,0.5c-0.5,0.2-1,0.4-1.5,0.6
		c-2,0.9-3.8,2-5.5,3.4c-0.8,0.7-1.6,1.4-2.4,2.2c-0.4,0.4-0.7,0.8-1.1,1.2c-0.2,0.2-0.4,0.4-0.5,0.6c-0.2,0.2-0.3,0.4-0.5,0.6
		l0,0.1c-0.3,0.5-1,0.5-1.4,0.2C442.4,298.7,442.2,298.1,442.5,297.7z"/>
</g>
<g>
	<rect x="46.6" y="508.3" class="st2" width="793.6" height="1.2"/>
</g>
</svg>
